<?xml version="1.0" encoding="utf-8"?>
<!-- Generator: Adobe Illustrator 17.1.0, SVG Export Plug-In . SVG Version: 6.00 Build 0)  -->
<!DOCTYPE svg PUBLIC "-//W3C//DTD SVG 1.1//EN" "http://www.w3.org/Graphics/SVG/1.1/DTD/svg11.dtd">
<svg version="1.1" id="Layer_1" xmlns="http://www.w3.org/2000/svg" xmlns:xlink="http://www.w3.org/1999/xlink" x="0px" y="0px"
	 viewBox="4.6 174.9 612 445.1" enable-background="new 4.6 174.9 612 445.1" xml:space="preserve">
<g id="Layer_4">
	
		<radialGradient id="SVGID_1_" cx="401.8928" cy="502.144" r="346.2369" gradientTransform="matrix(0.7727 0 0 -0.7727 0 785.4545)" gradientUnits="userSpaceOnUse">
		<stop  offset="0.2117" style="stop-color:#C8704F"/>
		<stop  offset="1" style="stop-color:#B4263C"/>
	</radialGradient>
	<rect x="4.6" y="174.9" fill="url(#SVGID_1_)" width="612" height="445.1"/>
</g>
<g id="Layer_1_1_">
	
		<radialGradient id="SVGID_2_" cx="397.7901" cy="508.0709" r="107.792" gradientTransform="matrix(0.7727 0 0 -0.7727 0 785.4545)" gradientUnits="userSpaceOnUse">
		<stop  offset="0.224" style="stop-color:#D9B077"/>
		<stop  offset="0.8794" style="stop-color:#D89349"/>
		<stop  offset="1" style="stop-color:#834830"/>
	</radialGradient>
	<circle fill="url(#SVGID_2_)" cx="307.4" cy="392.9" r="83.3"/>
	<g>
		
			<radialGradient id="SVGID_3_" cx="398.1951" cy="507.1769" r="87.013" gradientTransform="matrix(0.7727 0 0 -0.7727 0 785.4545)" gradientUnits="userSpaceOnUse">
			<stop  offset="0" style="stop-color:#E99F3C"/>
			<stop  offset="0.224" style="stop-color:#D9B077"/>
			<stop  offset="0.4111" style="stop-color:#D8A668"/>
			<stop  offset="0.6634" style="stop-color:#CC8B48"/>
			<stop  offset="0.8451" style="stop-color:#CA8643"/>
			<stop  offset="1" style="stop-color:#A16830"/>
		</radialGradient>
		<circle fill="url(#SVGID_3_)" cx="307.7" cy="393.5" r="67.2"/>
	</g>
	
		<linearGradient id="SVGID_4_" gradientUnits="userSpaceOnUse" x1="390.564" y1="535.0033" x2="405.0179" y2="535.0033" gradientTransform="matrix(0.7727 0 0 -0.7727 0 785.4545)">
		<stop  offset="0.1093" style="stop-color:#502412"/>
		<stop  offset="0.5067" style="stop-color:#A46726"/>
		<stop  offset="0.8627" style="stop-color:#341F17"/>
	</linearGradient>
	<path fill="url(#SVGID_4_)" stroke="#FFFFFF" stroke-width="0.1277" stroke-miterlimit="10" d="M311.8,372.3
		c-0.9,0.9-2.2,8.4-3.4,8.5c-1.5,0.1-4-7.2-5.2-8.3c-2.1-2-1.7-5.5,0.4-7.5c2-2.1,5.4-2.1,7.4-0.1
		C313,366.9,313.8,370.2,311.8,372.3z"/>
	
		<linearGradient id="SVGID_5_" gradientUnits="userSpaceOnUse" x1="390.968" y1="479.6786" x2="405.4222" y2="479.6786" gradientTransform="matrix(0.7727 0 0 -0.7727 0 785.4545)">
		<stop  offset="0.1093" style="stop-color:#502412"/>
		<stop  offset="0.5067" style="stop-color:#A46726"/>
		<stop  offset="0.8627" style="stop-color:#341F17"/>
	</linearGradient>
	<path fill="url(#SVGID_5_)" stroke="#FFFFFF" stroke-width="0.1277" stroke-miterlimit="10" d="M303.3,414.6
		c0.9-0.9,2.2-8.4,3.4-8.5c1.5-0.1,4,7.2,5.2,8.3c2.1,2,1.7,5.5-0.4,7.5c-2,2.1-5.4,2.1-7.4,0.1C302,420,301.3,416.6,303.3,414.6z"
		/>
	
		<linearGradient id="SVGID_6_" gradientUnits="userSpaceOnUse" x1="416.5533" y1="508.0701" x2="439.0616" y2="508.0701" gradientTransform="matrix(0.7727 0 0 -0.7727 0 785.4545)">
		<stop  offset="0.1093" style="stop-color:#502412"/>
		<stop  offset="0.5067" style="stop-color:#A46726"/>
		<stop  offset="0.8627" style="stop-color:#341F17"/>
	</linearGradient>
	<path fill="url(#SVGID_6_)" stroke="#FFFFFF" stroke-width="0.1277" stroke-miterlimit="10" d="M330.4,397.3
		c-0.9-0.9-8.4-2.2-8.5-3.4c-0.1-1.5,7.2-4,8.3-5.2c2-2.1,5.5-1.7,7.5,0.4c2.1,2,2.1,5.4,0.1,7.4
		C335.8,398.5,332.4,399.3,330.4,397.3z"/>
	
		<linearGradient id="SVGID_7_" gradientUnits="userSpaceOnUse" x1="357.1385" y1="505.127" x2="379.6469" y2="505.127" gradientTransform="matrix(0.7727 0 0 -0.7727 0 785.4545)">
		<stop  offset="0.1093" style="stop-color:#502412"/>
		<stop  offset="0.5067" style="stop-color:#A46726"/>
		<stop  offset="0.8627" style="stop-color:#341F17"/>
	</linearGradient>
	<path fill="url(#SVGID_7_)" stroke="#FFFFFF" stroke-width="0.1277" stroke-miterlimit="10" d="M284.9,390.7
		c0.9,0.9,8.4,2.2,8.5,3.4c0.1,1.5-7.2,4-8.3,5.2c-2,2.1-5.5,1.7-7.5-0.4c-2.1-2-2.1-5.4-0.1-7.4
		C279.5,389.5,282.8,388.7,284.9,390.7z"/>
</g>
<g id="Layer_2">
	
		<radialGradient id="SVGID_8_" cx="114.4188" cy="863.3697" r="8.7464" gradientTransform="matrix(-0.7727 0 0 0.7073 396.1115 -217.0839)" gradientUnits="userSpaceOnUse">
		<stop  offset="0.4014" style="stop-color:#D89349"/>
		<stop  offset="1" style="stop-color:#B97640"/>
	</radialGradient>
	<path opacity="0.74" fill="url(#SVGID_8_)" enable-background="new    " d="M306.1,386.4c0-0.8,0.7-1.4,1.6-1.4l0,0
		c0.9,0,1.6,0.6,1.6,1.4v14.4c0,0.8-0.7,1.4-1.6,1.4l0,0c-0.9,0-1.6-0.6-1.6-1.4V386.4z"/>
	
		<radialGradient id="SVGID_9_" cx="63.923" cy="507.5788" r="8.7464" gradientTransform="matrix(-3.469313e-11 -0.7727 -0.7073 3.175445e-11 666.6956 442.9532)" gradientUnits="userSpaceOnUse">
		<stop  offset="0.4014" style="stop-color:#D89349"/>
		<stop  offset="1" style="stop-color:#B97640"/>
	</radialGradient>
	<path opacity="0.74" fill="url(#SVGID_9_)" enable-background="new    " d="M314.9,392c0.8,0,1.4,0.7,1.4,1.6l0,0
		c0,0.9-0.6,1.6-1.4,1.6h-14.4c-0.8,0-1.4-0.7-1.4-1.6l0,0c0-0.9,0.6-1.6,1.4-1.6H314.9z"/>
	
		<radialGradient id="SVGID_10_" cx="471.5975" cy="925.279" r="8.7467" gradientTransform="matrix(0.1739 0.7529 0.5438 -0.1256 -204.7349 135.9775)" gradientUnits="userSpaceOnUse">
		<stop  offset="0.4014" style="stop-color:#D89349"/>
		<stop  offset="1" style="stop-color:#B97640"/>
	</radialGradient>
	<path fill="url(#SVGID_10_)" d="M375.2,377.7c-0.6,0.1-1.3-0.4-1.5-1.3l0,0c-0.2-0.8,0.1-1.6,0.8-1.8l11.1-2.6
		c0.6-0.1,1.3,0.4,1.5,1.3l0,0c0.2,0.8-0.1,1.6-0.8,1.8L375.2,377.7z"/>
	
		<radialGradient id="SVGID_11_" cx="427.6331" cy="1104.5457" r="8.7311" gradientTransform="matrix(1.506818e-02 0.7726 0.558 -1.089545e-02 -240.0467 71.2019)" gradientUnits="userSpaceOnUse">
		<stop  offset="0.4014" style="stop-color:#D89349"/>
		<stop  offset="1" style="stop-color:#B97640"/>
	</radialGradient>
	<path fill="url(#SVGID_11_)" d="M377.1,391.2c-0.6,0-1.1-0.7-1.2-1.5l0,0c0-0.9,0.5-1.6,1.1-1.6l11.3-0.2c0.6,0,1.1,0.7,1.2,1.5
		l0,0c0,0.9-0.5,1.6-1.1,1.6L377.1,391.2z"/>
	
		<radialGradient id="SVGID_12_" cx="487.1322" cy="854.3573" r="8.7562" gradientTransform="matrix(0.3388 0.6945 0.5016 -0.2446 -219.239 229.662)" gradientUnits="userSpaceOnUse">
		<stop  offset="0.4014" style="stop-color:#D89349"/>
		<stop  offset="1" style="stop-color:#B97640"/>
	</radialGradient>
	<path fill="url(#SVGID_12_)" d="M369.9,362.9c-0.6,0.3-1.3-0.1-1.7-0.9l0,0c-0.4-0.8-0.2-1.6,0.3-1.9l10.2-5
		c0.6-0.3,1.3,0.1,1.7,0.9l0,0c0.4,0.8,0.2,1.6-0.3,1.9L369.9,362.9z"/>
	
		<radialGradient id="SVGID_13_" cx="490.7479" cy="780.4324" r="8.7498" gradientTransform="matrix(0.4863 0.6005 0.4337 -0.3512 -212.3372 324.2277)" gradientUnits="userSpaceOnUse">
		<stop  offset="0.4014" style="stop-color:#D89349"/>
		<stop  offset="1" style="stop-color:#B97640"/>
	</radialGradient>
	<path fill="url(#SVGID_13_)" d="M361.4,349.6c-0.5,0.4-1.3,0.2-1.9-0.5l0,0c-0.5-0.7-0.6-1.5-0.1-1.9l8.8-7.1
		c0.5-0.4,1.3-0.2,1.9,0.5l0,0c0.5,0.7,0.6,1.5,0.1,1.9L361.4,349.6z"/>
	
		<radialGradient id="SVGID_14_" cx="482.2627" cy="707.298" r="8.734" gradientTransform="matrix(0.6089 0.4758 0.3436 -0.4398 -184.2602 414.808)" gradientUnits="userSpaceOnUse">
		<stop  offset="0.4014" style="stop-color:#D89349"/>
		<stop  offset="1" style="stop-color:#B97640"/>
	</radialGradient>
	<path fill="url(#SVGID_14_)" d="M350.1,338.6c-0.4,0.5-1.3,0.5-1.9-0.1l0,0c-0.7-0.5-0.9-1.4-0.5-1.9l7-8.9
		c0.4-0.5,1.3-0.5,1.9,0.1l0,0c0.7,0.5,0.9,1.4,0.5,1.9L350.1,338.6z"/>
	
		<radialGradient id="SVGID_15_" cx="462.1075" cy="638.6346" r="8.747" gradientTransform="matrix(0.7003 0.3266 0.2358 -0.5058 -136.5809 496.8051)" gradientUnits="userSpaceOnUse">
		<stop  offset="0.4014" style="stop-color:#D89349"/>
		<stop  offset="1" style="stop-color:#B97640"/>
	</radialGradient>
	<path fill="url(#SVGID_15_)" d="M336.7,330.5c-0.3,0.6-1.1,0.7-1.9,0.4l0,0c-0.8-0.4-1.2-1.1-0.9-1.7l4.8-10.3
		c0.3-0.6,1.1-0.7,1.9-0.4l0,0c0.8,0.4,1.2,1.1,0.9,1.7L336.7,330.5z"/>
	
		<radialGradient id="SVGID_16_" cx="431.315" cy="578.0201" r="8.7509" gradientTransform="matrix(0.7558 0.1606 0.1161 -0.5459 -71.7153 565.8831)" gradientUnits="userSpaceOnUse">
		<stop  offset="0.4014" style="stop-color:#D89349"/>
		<stop  offset="1" style="stop-color:#B97640"/>
	</radialGradient>
	<path fill="url(#SVGID_16_)" d="M321.7,325.5c-0.1,0.6-0.9,1-1.8,0.8l0,0c-0.8-0.2-1.4-0.8-1.3-1.4l2.4-11.1c0.1-0.6,0.9-1,1.8-0.8
		l0,0c0.8,0.2,1.4,0.8,1.3,1.4L321.7,325.5z"/>
	
		<radialGradient id="SVGID_17_" cx="391.4684" cy="528.569" r="8.7467" gradientTransform="matrix(0.7726 -1.352273e-02 -9.736364e-03 -0.558 7.1006 618.6572)" gradientUnits="userSpaceOnUse">
		<stop  offset="0.4014" style="stop-color:#D89349"/>
		<stop  offset="1" style="stop-color:#B97640"/>
	</radialGradient>
	<path fill="url(#SVGID_17_)" d="M306.1,324.1c0,0.6-0.7,1.1-1.6,1.2l0,0c-0.9,0-1.6-0.5-1.6-1.1l-0.2-11.3c0-0.6,0.7-1.1,1.6-1.2
		l0,0c0.9,0,1.6,0.5,1.6,1.1L306.1,324.1z"/>
	
		<radialGradient id="SVGID_18_" cx="344.6054" cy="492.807" r="8.7316" gradientTransform="matrix(0.7498 -0.1869 -0.135 -0.5415 95.7318 652.3638)" gradientUnits="userSpaceOnUse">
		<stop  offset="0.4014" style="stop-color:#D89349"/>
		<stop  offset="1" style="stop-color:#B97640"/>
	</radialGradient>
	<path fill="url(#SVGID_18_)" d="M290.5,326.2c0.2,0.6-0.4,1.3-1.3,1.5l0,0c-0.8,0.2-1.6-0.1-1.8-0.7l-2.7-11
		c-0.2-0.6,0.4-1.3,1.3-1.5l0,0c0.8-0.2,1.6,0.1,1.8,0.7L290.5,326.2z"/>
	
		<radialGradient id="SVGID_19_" cx="293.1317" cy="472.5129" r="8.746" gradientTransform="matrix(0.6885 -0.3508 -0.2534 -0.4972 189.7019 665.2192)" gradientUnits="userSpaceOnUse">
		<stop  offset="0.4014" style="stop-color:#D89349"/>
		<stop  offset="1" style="stop-color:#B97640"/>
	</radialGradient>
	<path fill="url(#SVGID_19_)" d="M275.8,331.8c0.3,0.6-0.1,1.3-0.9,1.7l0,0c-0.8,0.4-1.6,0.3-1.9-0.3l-5.2-10.1
		c-0.3-0.6,0.1-1.3,0.9-1.7l0,0c0.8-0.4,1.6-0.3,1.9,0.3L275.8,331.8z"/>
	
		<radialGradient id="SVGID_20_" cx="239.6821" cy="468.793" r="8.7498" gradientTransform="matrix(0.5919 -0.4967 -0.3587 -0.4276 284.1041 656.6639)" gradientUnits="userSpaceOnUse">
		<stop  offset="0.4014" style="stop-color:#D89349"/>
		<stop  offset="1" style="stop-color:#B97640"/>
	</radialGradient>
	<path fill="url(#SVGID_20_)" d="M262.7,340.5c0.4,0.5,0.2,1.3-0.5,1.9l0,0c-0.7,0.6-1.5,0.6-1.9,0.1l-7.3-8.7
		c-0.4-0.5-0.2-1.3,0.5-1.9l0,0c0.7-0.6,1.5-0.6,1.9-0.1L262.7,340.5z"/>
	
		<radialGradient id="SVGID_21_" cx="187.0012" cy="481.8185" r="8.7464" gradientTransform="matrix(0.465 -0.6171 -0.4457 -0.3358 374.2137 626.9995)" gradientUnits="userSpaceOnUse">
		<stop  offset="0.4014" style="stop-color:#D89349"/>
		<stop  offset="1" style="stop-color:#B97640"/>
	</radialGradient>
	<path fill="url(#SVGID_21_)" d="M251.9,352c0.5,0.4,0.5,1.2,0,1.9l0,0c-0.5,0.7-1.4,0.9-1.9,0.6l-9.1-6.8c-0.5-0.4-0.5-1.2,0-1.9
		l0,0c0.5-0.7,1.4-0.9,1.9-0.6L251.9,352z"/>
	
		<radialGradient id="SVGID_22_" cx="137.7848" cy="510.9367" r="8.7388" gradientTransform="matrix(0.3143 -0.7059 -0.5098 -0.227 455.3332 577.9399)" gradientUnits="userSpaceOnUse">
		<stop  offset="0.4014" style="stop-color:#D89349"/>
		<stop  offset="1" style="stop-color:#B97640"/>
	</radialGradient>
	<path fill="url(#SVGID_22_)" d="M244,365.5c0.6,0.3,0.8,1.1,0.4,1.9l0,0c-0.4,0.8-1.1,1.2-1.7,1l-10.4-4.6
		c-0.6-0.3-0.8-1.1-0.4-1.9l0,0c0.4-0.8,1.1-1.2,1.7-1L244,365.5z"/>
	
		<radialGradient id="SVGID_23_" cx="94.5561" cy="554.6252" r="8.7364" gradientTransform="matrix(0.1474 -0.7585 -0.5479 -0.1065 523.3377 511.8053)" gradientUnits="userSpaceOnUse">
		<stop  offset="0.4014" style="stop-color:#D89349"/>
		<stop  offset="1" style="stop-color:#B97640"/>
	</radialGradient>
	<path fill="url(#SVGID_23_)" d="M239.3,380.6c0.6,0.1,1,0.9,0.8,1.8l0,0c-0.2,0.9-0.8,1.4-1.4,1.3l-11.1-2.2
		c-0.6-0.1-1-0.9-0.8-1.8l0,0c0.2-0.9,0.8-1.4,1.4-1.3L239.3,380.6z"/>
	
		<radialGradient id="SVGID_24_" cx="59.5363" cy="610.6434" r="8.7468" gradientTransform="matrix(-2.696818e-02 -0.7723 -0.5578 1.947273e-02 574.6937 432.1106)" gradientUnits="userSpaceOnUse">
		<stop  offset="0.4014" style="stop-color:#D89349"/>
		<stop  offset="1" style="stop-color:#B97640"/>
	</radialGradient>
	<path fill="url(#SVGID_24_)" d="M238.1,396.3c0.6,0,1.2,0.7,1.2,1.5l0,0c0,0.9-0.5,1.6-1.1,1.6l-11.3,0.4c-0.6,0-1.2-0.7-1.2-1.5
		l0,0c0-0.9,0.5-1.6,1.1-1.6L238.1,396.3z"/>
	
		<radialGradient id="SVGID_25_" cx="34.5176" cy="676.1365" r="8.7465" gradientTransform="matrix(-0.2 -0.7464 -0.5391 0.1444 606.8031 342.9068)" gradientUnits="userSpaceOnUse">
		<stop  offset="0.4014" style="stop-color:#D89349"/>
		<stop  offset="1" style="stop-color:#B97640"/>
	</radialGradient>
	<path fill="url(#SVGID_25_)" d="M240.5,411.8c0.6-0.2,1.3,0.4,1.5,1.2l0,0c0.2,0.8-0.1,1.6-0.7,1.8l-11,2.9
		c-0.6,0.2-1.3-0.4-1.5-1.2l0,0c-0.2-0.8,0.1-1.6,0.7-1.8L240.5,411.8z"/>
	
		<radialGradient id="SVGID_26_" cx="20.7757" cy="747.7571" r="8.7462" gradientTransform="matrix(-0.3628 -0.6822 -0.4928 0.262 618.0563 248.7124)" gradientUnits="userSpaceOnUse">
		<stop  offset="0.4014" style="stop-color:#D89349"/>
		<stop  offset="1" style="stop-color:#B97640"/>
	</radialGradient>
	<path fill="url(#SVGID_26_)" d="M246.3,426.4c0.6-0.3,1.3,0.1,1.7,0.9l0,0c0.4,0.8,0.3,1.6-0.3,1.9l-10,5.3
		c-0.6,0.3-1.3-0.1-1.7-0.9l0,0c-0.4-0.8-0.3-1.6,0.3-1.9L246.3,426.4z"/>
	
		<radialGradient id="SVGID_27_" cx="19.023" cy="821.8129" r="8.7464" gradientTransform="matrix(-0.507 -0.5832 -0.4212 0.3661 607.8333 154.4769)" gradientUnits="userSpaceOnUse">
		<stop  offset="0.4014" style="stop-color:#D89349"/>
		<stop  offset="1" style="stop-color:#B97640"/>
	</radialGradient>
	<path fill="url(#SVGID_27_)" d="M255.3,439.4c0.5-0.4,1.3-0.2,1.9,0.4l0,0c0.6,0.7,0.6,1.5,0.2,1.9l-8.6,7.4
		c-0.5,0.4-1.3,0.2-1.9-0.4l0,0c-0.6-0.7-0.6-1.5-0.2-1.9L255.3,439.4z"/>
	
		<radialGradient id="SVGID_28_" cx="29.3528" cy="894.5225" r="8.7465" gradientTransform="matrix(-0.6251 -0.4542 -0.328 0.4515 576.6296 64.9057)" gradientUnits="userSpaceOnUse">
		<stop  offset="0.4014" style="stop-color:#D89349"/>
		<stop  offset="1" style="stop-color:#B97640"/>
	</radialGradient>
	<path fill="url(#SVGID_28_)" d="M266.9,449.9c0.4-0.5,1.2-0.5,1.9,0l0,0c0.7,0.5,1,1.3,0.6,1.8l-6.7,9.2c-0.4,0.5-1.2,0.5-1.9,0
		l0,0c-0.7-0.5-1-1.3-0.6-1.8L266.9,449.9z"/>
	
		<radialGradient id="SVGID_29_" cx="51.2226" cy="962.1488" r="8.7469" gradientTransform="matrix(-0.7113 -0.3019 -0.2181 0.5137 526.1171 -15.3268)" gradientUnits="userSpaceOnUse">
		<stop  offset="0.4014" style="stop-color:#D89349"/>
		<stop  offset="1" style="stop-color:#B97640"/>
	</radialGradient>
	<path fill="url(#SVGID_29_)" d="M280.6,457.6c0.2-0.6,1.1-0.8,1.9-0.4l0,0c0.8,0.3,1.2,1.1,1,1.7l-4.4,10.4
		c-0.2,0.6-1.1,0.8-1.9,0.4l0,0c-0.8-0.3-1.2-1.1-1-1.7L280.6,457.6z"/>
	
		<radialGradient id="SVGID_30_" cx="83.5241" cy="1021.241" r="8.7374" gradientTransform="matrix(-0.761 -0.1341 -9.690000e-02 0.5496 458.8271 -82.124)" gradientUnits="userSpaceOnUse">
		<stop  offset="0.4014" style="stop-color:#D89349"/>
		<stop  offset="1" style="stop-color:#B97640"/>
	</radialGradient>
	<path fill="url(#SVGID_30_)" d="M295.7,462c0.1-0.6,0.9-1,1.7-0.8l0,0c0.9,0.2,1.5,0.8,1.4,1.4l-2,11.2c-0.1,0.6-0.9,1-1.7,0.8l0,0
		c-0.9-0.2-1.5-0.8-1.4-1.4L295.7,462z"/>
	
		<radialGradient id="SVGID_31_" cx="124.5928" cy="1068.7549" r="8.7328" gradientTransform="matrix(-0.7716 4.041363e-02 2.920909e-02 0.5573 378.2473 -132.1099)" gradientUnits="userSpaceOnUse">
		<stop  offset="0.4014" style="stop-color:#D89349"/>
		<stop  offset="1" style="stop-color:#B97640"/>
	</radialGradient>
	<path fill="url(#SVGID_31_)" d="M311.5,462.9c0-0.6,0.6-1.2,1.5-1.2l0,0c0.9,0,1.6,0.4,1.6,1.1l0.6,11.3c0,0.6-0.6,1.2-1.5,1.2l0,0
		c-0.9,0-1.6-0.4-1.6-1.1L311.5,462.9z"/>
	
		<radialGradient id="SVGID_32_" cx="172.3279" cy="1102.2312" r="8.7467" gradientTransform="matrix(-0.7428 0.213 0.1539 0.5364 288.468 -162.6688)" gradientUnits="userSpaceOnUse">
		<stop  offset="0.4014" style="stop-color:#D89349"/>
		<stop  offset="1" style="stop-color:#B97640"/>
	</radialGradient>
	<path fill="url(#SVGID_32_)" d="M327,460.3c-0.2-0.6,0.4-1.3,1.2-1.5l0,0c0.8-0.2,1.7,0.1,1.8,0.7l3.1,10.9
		c0.2,0.6-0.4,1.3-1.2,1.5l0,0c-0.8,0.2-1.7-0.1-1.8-0.7L327,460.3z"/>
	
		<radialGradient id="SVGID_33_" cx="224.2837" cy="1119.9987" r="8.745" gradientTransform="matrix(-0.6758 0.3746 0.2705 0.4881 194.1719 -172.3052)" gradientUnits="userSpaceOnUse">
		<stop  offset="0.4014" style="stop-color:#D89349"/>
		<stop  offset="1" style="stop-color:#B97640"/>
	</radialGradient>
	<path fill="url(#SVGID_33_)" d="M341.5,454.2c-0.3-0.5,0.1-1.3,0.8-1.8l0,0c0.8-0.4,1.6-0.3,1.9,0.2l5.5,9.9
		c0.3,0.5-0.1,1.3-0.8,1.8l0,0c-0.8,0.4-1.6,0.3-1.9-0.2L341.5,454.2z"/>
	
		<radialGradient id="SVGID_34_" cx="277.7913" cy="1121.1251" r="8.7498" gradientTransform="matrix(-0.5742 0.517 0.3735 0.4147 100.0456 -160.4004)" gradientUnits="userSpaceOnUse">
		<stop  offset="0.4014" style="stop-color:#D89349"/>
		<stop  offset="1" style="stop-color:#B97640"/>
	</radialGradient>
	<path fill="url(#SVGID_34_)" d="M354.2,445c-0.4-0.5-0.2-1.3,0.4-1.9l0,0c0.6-0.6,1.5-0.7,1.9-0.2l7.6,8.4c0.4,0.5,0.2,1.3-0.4,1.9
		l0,0c-0.6,0.6-1.5,0.7-1.9,0.2L354.2,445z"/>
	
		<radialGradient id="SVGID_35_" cx="330.115" cy="1105.5822" r="8.7464" gradientTransform="matrix(-0.4432 0.633 0.4571 0.3201 11.0806 -127.6445)" gradientUnits="userSpaceOnUse">
		<stop  offset="0.4014" style="stop-color:#D89349"/>
		<stop  offset="1" style="stop-color:#B97640"/>
	</radialGradient>
	<path fill="url(#SVGID_35_)" d="M364.6,433.2c-0.5-0.4-0.5-1.2,0-1.9l0,0c0.5-0.7,1.3-1,1.8-0.6l9.3,6.5c0.5,0.4,0.5,1.2,0,1.9l0,0
		c-0.5,0.7-1.3,1-1.8,0.6L364.6,433.2z"/>
	
		<radialGradient id="SVGID_36_" cx="378.5672" cy="1074.1219" r="8.7377" gradientTransform="matrix(-0.2895 0.7165 0.5174 0.209 -68.2555 -75.7291)" gradientUnits="userSpaceOnUse">
		<stop  offset="0.4014" style="stop-color:#D89349"/>
		<stop  offset="1" style="stop-color:#B97640"/>
	</radialGradient>
	<path fill="url(#SVGID_36_)" d="M372.1,419.4c-0.6-0.2-0.8-1.1-0.5-1.9l0,0c0.3-0.8,1.1-1.3,1.6-1l10.5,4.3
		c0.6,0.2,0.8,1.1,0.5,1.9l0,0c-0.3,0.8-1.1,1.3-1.6,1L372.1,419.4z"/>
	
		<radialGradient id="SVGID_37_" cx="422.2793" cy="1029.8633" r="8.755" gradientTransform="matrix(-0.1209 0.7632 0.5512 8.731817e-02 -133.8948 -7.3362)" gradientUnits="userSpaceOnUse">
		<stop  offset="0.4014" style="stop-color:#D89349"/>
		<stop  offset="1" style="stop-color:#B97640"/>
	</radialGradient>
	<path fill="url(#SVGID_37_)" d="M376.9,405.5c-0.6-0.1-1-0.9-0.9-1.7l0,0c0.1-0.9,0.7-1.5,1.4-1.4l11.2,1.8c0.6,0.1,1,0.9,0.9,1.7
		l0,0c-0.1,0.9-0.7,1.5-1.4,1.4L376.9,405.5z"/>
</g>
<g id="Layer_3">
	
		<radialGradient id="SVGID_38_" cx="402.3524" cy="471.8579" r="93.112" gradientTransform="matrix(0.7716 0.1049 0.1042 -0.7657 -50.1107 739.743)" gradientUnits="userSpaceOnUse">
		<stop  offset="0.2117" style="stop-color:#C8704F"/>
		<stop  offset="1" style="stop-color:#B4263C"/>
	</radialGradient>
	<path fill="url(#SVGID_38_)" d="M369.3,383.2c0,0,1.5-20.8,17.7-17.4c0,0,4.3,0.9,5.8,16.7c1.5,16.2-4,15.9-4.4,41.5
		c-0.4,24.6-14.3,11.8-10.3,22c5.3,13.6-6.2,21.4-9.9,18.1c-2.5-2.2-0.7-4.6-2.3-5.6c-4.3-2.4-2.4,2.6-1.8,10.3
		c0.6,8.2-6.5,16.2-14.4,10.1c-5.4-4.1-5.1-2.7-11.7,2.5c-5,4,0,0-4.4,3.9c-7.8,6.9-14.8,0.1-20.5-3.4c-7.3-4.5-14.4-6.4-26.1-7.7
		c-6.9-0.8-16-3.9-24.6-11.7c-1.5-1.3-4.5-2.2-5.3-2.2c-4,0.4-7.7,1.8-9.4-3.9c-2.2-7.3-9.2-14.2-13.3-21.6
		c-13.7-25.2,5.5-6.1,13.8-3.1c8.3,3,13.6,1.9,17.1-1.9c3.4-3.8,6.5-8.6,13.3-9.2c6.7-0.6,8.1,9.5,24.8,9.7
		c16.7,0.1,24.1-15.9,27-19.7c2.9-3.8,12.4-12.3,23.2-14.8C364.2,393.4,367.5,389.3,369.3,383.2z"/>
	<g opacity="0.35">
		
			<radialGradient id="SVGID_39_" cx="407.6246" cy="477.7518" r="67.2379" gradientTransform="matrix(0.7717 3.925454e-02 3.925454e-02 -0.7717 -18.939 769.1743)" gradientUnits="userSpaceOnUse">
			<stop  offset="0.2117" style="stop-color:#C8704F"/>
			<stop  offset="1" style="stop-color:#B4263C"/>
		</radialGradient>
		<path fill="url(#SVGID_39_)" d="M254.4,433.9c11.6,14.9,29.3,24.8,49.6,25.8c37.1,1.9,68.7-26.6,70.6-63.7
			c0.4-7-0.4-13.9-2.1-20.3C372.5,375.7,364.7,462.6,254.4,433.9"/>
	</g>
	<path opacity="0.17" fill="#FFFFFF" enable-background="new    " d="M348.5,473c1.2,1.9,1.8,4.5,4,4.6c4,0.2,8.9-4.8,9.1-9.5
		c0-0.9,0-1.8-0.2-2.6C361.5,470.2,356.9,475.5,348.5,473"/>
	<path opacity="0.17" fill="#FFFFFF" enable-background="new    " d="M318,477.3c1,2.3,2.9,4.3,5.6,5.3c4.8,1.8,10.1-0.2,11.8-4.6
		c0.3-0.8,0.5-1.7,0.5-2.5C335.9,475.3,331.5,485.5,318,477.3"/>
	<path opacity="0.17" fill="#FFFFFF" enable-background="new    " d="M368.3,457.6c0.8,1.4,2,2.4,3.5,2.5c2.7,0.3,5.2-2.3,5.5-5.7
		c0.1-0.7,0.1-1.3,0-1.9C377.3,452.5,376.2,460.5,368.3,457.6"/>
	<path opacity="0.17" fill="#FFFFFF" enable-background="new    " d="M256,456.1c-0.8,1.3-2,2.1-3.2,2c-2.3-0.1-3.9-3-3.8-6.5
		c0-0.7,0.1-1.3,0.3-1.9C249.3,449.7,249.1,457.9,256,456.1"/>
	<path opacity="0.17" fill="#FFFFFF" enable-background="new    " d="M375.9,434.5c1.3,1.5,2.7,2.3,3.9,2c2.3-0.7,5-4.3,4.5-9.2
		c-0.1-0.9-0.1-2.5-0.5-3.2C383.8,423.9,383.5,433.3,375.9,434.5"/>
</g>
<g>
	<path fill="#EFDEB4" stroke="#EFDEB4" stroke-width="1.8439" stroke-miterlimit="10" d="M147.2,559.4l2.6-2.6
		c0.3-0.3,0.6-0.4,0.9-0.4c0.3,0,0.6,0.2,1,0.5l2.5,2.7c0.3,0.3,0.4,0.6,0.4,0.9c0,0.3-0.1,0.6-0.4,1l-2.5,2.8
		c-0.4,0.4-0.7,0.6-0.9,0.6c-0.3,0-0.6-0.1-0.9-0.4l-2.8-3.2c-0.2-0.3-0.3-0.5-0.3-0.8C146.7,560.1,146.8,559.7,147.2,559.4z
		 M168.7,559.4l2.6-2.6c0.3-0.3,0.6-0.4,0.9-0.4c0.3,0,0.6,0.2,1,0.5l2.5,2.7c0.3,0.3,0.4,0.6,0.4,0.9c0,0.3-0.1,0.6-0.4,1l-2.5,2.8
		c-0.4,0.4-0.7,0.6-0.9,0.6c-0.3,0-0.6-0.1-0.9-0.4l-2.8-3.2c-0.2-0.3-0.3-0.5-0.3-0.8C168.2,560.1,168.3,559.7,168.7,559.4z
		 M190.2,559.4l2.6-2.6c0.3-0.3,0.6-0.4,0.9-0.4c0.3,0,0.6,0.2,1,0.5l2.5,2.7c0.3,0.3,0.4,0.6,0.4,0.9c0,0.3-0.1,0.6-0.4,1l-2.5,2.8
		c-0.4,0.4-0.7,0.6-0.9,0.6c-0.3,0-0.6-0.1-0.9-0.4l-2.8-3.2c-0.2-0.3-0.3-0.5-0.3-0.8C189.7,560.1,189.9,559.7,190.2,559.4z"/>
	<path fill="#EFDEB4" stroke="#EFDEB4" stroke-width="1.8439" stroke-miterlimit="10" d="M214.1,523.5h1c0.6,0,1.4,1.4,2.3,4.2
		c0.8,6.2,1.3,12.4,1.3,18.7c0,9.7-0.6,15.5-1.8,17.3c-0.7,0.8-1.2,1.1-1.8,1.1h-0.5c-2.3,0-3.8-3.7-4.4-11c-0.2-2.8-0.3-6.8-0.5-12
		v-2.4c0-5.1,0.8-9.7,2.4-13.6c-0.1-0.1-0.1-0.3-0.1-0.5L214.1,523.5z M210.8,539.6c0.3,8.6,0.6,14.4,1,17.5c0.7,4.2,1.7,6.3,3,6.3
		c1.7,0,2.5-5.6,2.5-16.9v-0.3c0-7.2-0.5-13.5-1.4-19c-0.7-1.7-1.1-2.5-1.4-2.5h-0.1c-1.5,1-2.6,4.7-3.4,11.2L210.8,539.6z"/>
	<path fill="#EFDEB4" stroke="#EFDEB4" stroke-width="1.8439" stroke-miterlimit="10" d="M234.4,521.7h0.4l0.5,0.5
		c-0.2,0.9-0.3,2-0.3,3.2c0,2.1,0.9,10,2.8,23.7l1.1,12.9c-0.1,0.4-0.4,0.6-0.9,0.6c-0.4,0-1.2-3-2.4-8.9c-0.8-2.7-2.2-8.7-4.4-17.8
		c-1.3-3.6-2.2-6.8-2.8-9.6h-0.1l0.1,1.5c0,1.7-0.2,6.8-0.5,15.4c0.2,7.7,0.5,14.6,1,20.8v0.3c-0.1,0.3-0.4,0.5-0.9,0.5l-0.5-0.4
		l0.1-1.1c-0.5-5.5-0.8-12.1-1-19.9c0.3-8.4,0.5-13.4,0.5-15.1c0-0.4,0-1.4-0.1-2.9c0.1-0.2,0.1-0.3,0.1-0.4c-0.1-0.3-0.1-0.7-0.1-1
		c0-1.3,0.2-2,0.6-2c0.8,0,1.4,1.4,1.9,4.2c2.9,9.5,5,17.7,6.6,24.8c0.5,1.8,0.8,2.9,0.8,3h0.1c-0.4-4.1-1.4-12-2.9-23.7
		c-0.2-1.2-0.3-2.8-0.4-4.9c0.1-1.6,0.1-2.7,0.1-3.2L234.4,521.7z"/>
	<path fill="#EFDEB4" stroke="#EFDEB4" stroke-width="1.8439" stroke-miterlimit="10" d="M247.1,520.8c0.9,0.3,1.8,0.5,2.9,0.5
		c1.7-0.1,2.8-0.1,3.4-0.1l0.3,0.4v0.5c0,0.1-0.1,0.3-0.4,0.4c-0.5,0-1.6,0-3.5,0.1l-1.5-0.1c0.3,1.6,0.4,3.9,0.4,6.9
		c-0.5,7.3-0.8,11.7-0.8,13c0,0.2,1.8,0.5,5.3,0.8l0.4,0.5v0.3c0,0.2-0.3,0.3-0.6,0.5c-1.3-0.3-3-0.4-5.2-0.4
		c-0.5,8.2-0.8,13.8-0.8,16.9v2.3c0,0.2,0.1,0.3,0.3,0.3h0.1l4.8-0.5v0.1l0.3-0.1h0.5c0.1,0,0.3,0.2,0.5,0.5v0.3
		c0,0.1-0.2,0.3-0.5,0.5h-1.3l-3.9,0.5c-0.2-0.1-0.3-0.1-0.4-0.1l-0.3,0.1c-0.9,0-1.3-0.5-1.4-1.5V561c0-3.5,0.5-14.1,1.6-31.6v-0.5
		c0-3.9-0.3-6.4-0.8-7.6C246.6,521.2,246.8,521,247.1,520.8z"/>
	<path fill="#EFDEB4" stroke="#EFDEB4" stroke-width="1.8439" stroke-miterlimit="10" d="M275.8,520.4c3.9,0,6.6,1.8,8.1,5.4
		c0.3,0.8,0.4,1.8,0.5,2.9c0,5.3-0.9,11-2.8,17.3c-0.9,1.5-2.1,2.6-3.7,3.4c-1,0.1-1.5,0.2-1.5,0.4v0.1c0,1.1,0,2,0.1,2.8
		c-0.1,0.7-0.1,1.2-0.1,1.3c0.3,4.7,0.4,7.5,0.4,8.2c0.3,0,0.4,0.4,0.4,1v0.4c-0.3,0.7-0.5,1-0.8,1.1h-0.3c-0.1,0-0.3-0.2-0.5-0.5
		v-0.9c0-0.1,0-0.1,0.1-0.1c-0.1-0.8-0.3-1.9-0.4-3.3c0-0.1,0-0.1,0.1-0.1l-0.4-5.3c0.1-0.8,0.1-1.5,0.1-1.9
		c-0.1-1.5-0.1-2.5-0.1-2.9c-0.3-0.2-0.5-0.4-0.5-0.6c0.1-0.3,0.3-0.5,0.5-0.5c-0.2-2.2-0.3-3.6-0.3-4l0.6-22.9
		c-0.2,0-0.3-0.1-0.3-0.3v-0.4C275.3,520.8,275.5,520.6,275.8,520.4z M276.8,521.7l-0.6,22.8c0.1,1.8,0.1,3,0.1,3.7l0.3,0.1
		c1,0,1.9-0.5,2.9-1.5c1.4-0.9,2.6-6.1,3.5-15.5c0.1-1.5,0.1-2.5,0.1-3c0-2.2-1.3-4.2-3.8-5.9C278.6,522.1,277.8,521.9,276.8,521.7z
		"/>
	<path fill="#EFDEB4" stroke="#EFDEB4" stroke-width="1.8439" stroke-miterlimit="10" d="M291.6,521.8h0.3c0.6,0,0.9,2.2,0.9,6.7
		v1.6c0,1.6-0.3,5.9-0.8,12.7c0,0.3,0,0.7,0.1,1c-0.1,4.4-0.1,7.9-0.1,10.5v8.2c0,0.2,0.1,0.6,0.3,1.3c-0.1,0.6-0.3,0.9-0.5,0.9
		h-0.5c-0.3,0-0.5-1.1-0.5-3.4c0-14.6,0.3-24.6,0.8-30.1v-3.5c0-2-0.1-3.7-0.4-5.3C291.1,522.2,291.2,522,291.6,521.8z"/>
	<path fill="#EFDEB4" stroke="#EFDEB4" stroke-width="1.8439" stroke-miterlimit="10" d="M301.8,520.8c0.9,0.3,1.8,0.5,2.9,0.5
		c1.7-0.1,2.8-0.1,3.4-0.1l0.3,0.4v0.5c0,0.1-0.1,0.3-0.4,0.4c-0.5,0-1.6,0-3.5,0.1l-1.5-0.1c0.3,1.6,0.4,3.9,0.4,6.9
		c-0.5,7.3-0.8,11.7-0.8,13c0,0.2,1.8,0.5,5.3,0.8l0.4,0.5v0.3c0,0.2-0.3,0.3-0.6,0.5c-1.3-0.3-3-0.4-5.2-0.4
		c-0.5,8.2-0.8,13.8-0.8,16.9v2.3c0,0.2,0.1,0.3,0.3,0.3h0.1l4.8-0.5v0.1l0.3-0.1h0.5c0.1,0,0.3,0.2,0.5,0.5v0.3
		c0,0.1-0.2,0.3-0.5,0.5h-1.3l-3.9,0.5c-0.2-0.1-0.3-0.1-0.4-0.1l-0.3,0.1c-0.9,0-1.3-0.5-1.4-1.5V561c0-3.5,0.5-14.1,1.6-31.6v-0.5
		c0-3.9-0.3-6.4-0.8-7.6C301.3,521.2,301.4,521,301.8,520.8z"/>
	<path fill="#EFDEB4" stroke="#EFDEB4" stroke-width="1.8439" stroke-miterlimit="10" d="M332.9,521.7h0.1c1.2,0.5,2.2,2,3.1,4.4
		c2.3,7.2,4.1,16.5,5.2,27.7c0.7,3.7,1.1,6.9,1.1,9.6c-0.1,0.3-0.4,0.4-0.9,0.4c-0.3-0.7-0.8-4-1.5-10c-0.2-0.7-0.6-3.4-1.3-8.4
		l-1-0.1c-4.5,0.4-6.8,0.9-6.8,1.4v4.9l-0.9,11.7c0.2,0.3,0.3,0.6,0.3,0.8c0,0.1-0.2,0.3-0.6,0.6c-0.7,0-1.1-0.5-1.1-1.4
		c0.7-8.9,1-14.2,1-16c-0.1-1.2-0.1-2.3-0.1-3.5c0-6.1,0.5-12.4,1.5-19.2C331.4,522.6,332.1,521.7,332.9,521.7z M332.9,523.3
		c-1.2,4.7-1.8,10.8-1.8,18.2c-0.1,0-0.1,1-0.1,3.1v0.4c2.6-0.7,5.2-1.1,7.7-1.1v-0.2c0-2.6-1.4-8.6-4.2-18.2
		C333.8,524.2,333.3,523.5,332.9,523.3z"/>
	<path fill="#EFDEB4" stroke="#EFDEB4" stroke-width="1.8439" stroke-miterlimit="10" d="M361.2,523.6l0.4,0.4v0.3
		c0,0.4-1.2,0.5-3.5,0.5h-3.5c-0.1,0-0.3,0.1-0.4,0.4l0.3,5.8c-0.1,0.5-0.1,0.8-0.1,0.9c0.8,12.7,1.1,21.8,1.1,27.3
		c0.1,0.1,0.1,0.3,0.1,0.3c-0.1,0.1-0.1,0.2-0.1,0.3l0.1,0.8c-0.1,0.3-0.3,0.4-0.4,0.4h-0.5c-0.1,0-0.3-0.1-0.5-0.4
		c0-0.1,0-0.5,0.1-1.2c0-1.8-0.4-10.9-1.1-27.2c0-2.7-0.1-5.1-0.3-7.3l-0.3-0.1h-0.4l-4,0.3c-0.3-0.3-0.4-0.6-0.4-1
		c0-0.1,0.2-0.3,0.5-0.4c0.6,0.1,0.9,0.2,1,0.2c1.6-0.1,2.8-0.2,3.4-0.2h5.2C359,523.9,360.1,523.8,361.2,523.6z"/>
	<path fill="#EFDEB4" stroke="#EFDEB4" stroke-width="1.8439" stroke-miterlimit="10" d="M383.8,521.7h0.1c1.2,0.5,2.2,2,3.1,4.4
		c2.3,7.2,4.1,16.5,5.2,27.7c0.7,3.7,1.1,6.9,1.1,9.6c-0.1,0.3-0.4,0.4-0.9,0.4c-0.3-0.7-0.8-4-1.5-10c-0.2-0.7-0.6-3.4-1.3-8.4
		l-1-0.1c-4.5,0.4-6.8,0.9-6.8,1.4v4.9l-0.9,11.7c0.2,0.3,0.3,0.6,0.3,0.8c0,0.1-0.2,0.3-0.6,0.6c-0.7,0-1.1-0.5-1.1-1.4
		c0.7-8.9,1-14.2,1-16c-0.1-1.2-0.1-2.3-0.1-3.5c0-6.1,0.5-12.4,1.5-19.2C382.4,522.6,383,521.7,383.8,521.7z M383.8,523.3
		c-1.2,4.7-1.8,10.8-1.8,18.2c-0.1,0-0.1,1-0.1,3.1v0.4c2.6-0.7,5.2-1.1,7.7-1.1v-0.2c0-2.6-1.4-8.6-4.2-18.2
		C384.7,524.2,384.2,523.5,383.8,523.3z"/>
	<path fill="#EFDEB4" stroke="#EFDEB4" stroke-width="1.8439" stroke-miterlimit="10" d="M425.6,523.6l0.4,0.4v0.3
		c0,0.4-1.2,0.5-3.5,0.5h-3.5c-0.1,0-0.3,0.1-0.4,0.4l0.3,5.8c-0.1,0.5-0.1,0.8-0.1,0.9c0.8,12.7,1.1,21.8,1.1,27.3
		c0.1,0.1,0.1,0.3,0.1,0.3c-0.1,0.1-0.1,0.2-0.1,0.3l0.1,0.8c-0.1,0.3-0.3,0.4-0.4,0.4h-0.5c-0.1,0-0.3-0.1-0.5-0.4
		c0-0.1,0-0.5,0.1-1.2c0-1.8-0.4-10.9-1.1-27.2c0-2.7-0.1-5.1-0.3-7.3l-0.3-0.1h-0.4l-4,0.3c-0.3-0.3-0.4-0.6-0.4-1
		c0-0.1,0.2-0.3,0.5-0.4c0.6,0.1,0.9,0.2,1,0.2c1.6-0.1,2.8-0.2,3.4-0.2h5.2C423.4,523.9,424.5,523.8,425.6,523.6z"/>
	<path fill="#EFDEB4" stroke="#EFDEB4" stroke-width="1.8439" stroke-miterlimit="10" d="M433.2,521.8h0.3c0.6,0,0.9,2.2,0.9,6.7
		v1.6c0,1.6-0.3,5.9-0.8,12.7c0,0.3,0,0.7,0.1,1c-0.1,4.4-0.1,7.9-0.1,10.5v8.2c0,0.2,0.1,0.6,0.3,1.3c-0.1,0.6-0.3,0.9-0.5,0.9
		h-0.5c-0.3,0-0.5-1.1-0.5-3.4c0-14.6,0.3-24.6,0.8-30.1v-3.5c0-2-0.1-3.7-0.4-5.3C432.7,522.2,432.9,522,433.2,521.8z"/>
	<path fill="#EFDEB4" stroke="#EFDEB4" stroke-width="1.8439" stroke-miterlimit="10" d="M442.6,520.3h0.5c0.2,0.1,1.8,3,4.7,8.8
		c0.9,2.6,1.8,5.3,2.5,8.1h0.3v-0.1c0-0.5,0.7-5,2-13.5c0-1.7,0.3-2.6,0.8-2.8h0.3c0.8,0,1.1,4,1.1,12.1c0,6.6,0,10.8,0.1,12.9
		c-0.1,0.7-0.1,3-0.1,6.9c0,0.4,0,0.9,0.1,1.6c0,0.1,0,0.2-0.1,0.4c0.1,1.9,0.1,3.4,0.1,4.5v3.4c0,0.4,0,0.8,0.1,1.4
		c-0.2,0.4-0.3,0.6-0.5,0.6c-0.4,0-0.8-0.3-1-0.8c0.1-0.8,0.1-1.5,0.1-1.9v-6.2l-0.1-0.8l0.1-0.3c0-0.5,0-1.3-0.1-2.4
		c0-2.4,0-4.5,0.1-6.3c-0.1-4.9-0.1-9.8-0.1-14.7v-2.6l-0.1-1.3h-0.1c0,0.5-0.4,3.3-1.3,8.4l-0.8,6.6l-0.3,0.1h-0.5
		c-0.3,0-0.8-1.9-1.4-5.7c-1.4-4.7-3-8.9-5-12.6h-0.1c0.6,5.3,1.1,12.8,1.6,22.7c-0.1,1.7-0.1,3.2-0.1,4.4v5.8c0,1.6,0,3.9-0.1,6.9
		l-0.4,0.3h-0.4c-0.2,0-0.4-0.3-0.5-0.9c0.1-2.1,0.1-3.7,0.1-4.7v-5.5c0-1.9,0-4.1,0.1-6.6c-0.5-10.1-1.2-18.9-2-26.2L442.6,520.3z"
		/>
	<path fill="#EFDEB4" stroke="#EFDEB4" stroke-width="1.8439" stroke-miterlimit="10" d="M463.7,520.8c0.9,0.3,1.8,0.5,2.9,0.5
		c1.7-0.1,2.8-0.1,3.4-0.1l0.3,0.4v0.5c0,0.1-0.1,0.3-0.4,0.4c-0.5,0-1.6,0-3.5,0.1l-1.5-0.1c0.3,1.6,0.4,3.9,0.4,6.9
		c-0.5,7.3-0.8,11.7-0.8,13c0,0.2,1.8,0.5,5.3,0.8l0.4,0.5v0.3c0,0.2-0.3,0.3-0.6,0.5c-1.3-0.3-3-0.4-5.2-0.4
		c-0.5,8.2-0.8,13.8-0.8,16.9v2.3c0,0.2,0.1,0.3,0.3,0.3h0.1l4.8-0.5v0.1l0.3-0.1h0.5c0.1,0,0.3,0.2,0.5,0.5v0.3
		c0,0.1-0.2,0.3-0.5,0.5h-1.3l-3.9,0.5c-0.2-0.1-0.3-0.1-0.4-0.1l-0.3,0.1c-0.9,0-1.3-0.5-1.4-1.5V561c0-3.5,0.5-14.1,1.6-31.6v-0.5
		c0-3.9-0.3-6.4-0.8-7.6C463.2,521.2,463.4,521,463.7,520.8z"/>
</g>
<g>
	<path fill="#EFDEB4" stroke="#EFDEB4" stroke-width="2.2808" stroke-miterlimit="10" d="M124.6,228.7h1.1c1.9,0.3,2.8,1,2.8,2
		c0,0.2-0.2,0.4-0.6,0.6h-0.6c-0.7-0.8-1.4-1.2-2.2-1.2c-2.6,0.9-3.9,1.7-3.9,2.5c-2.1,4-3.1,9.4-3.1,16.2v2.7
		c0,4.6,0.6,10.2,1.9,16.7c0.8,4.8,1.8,8,3.1,9.7c1.6,1.4,3,2.1,4.2,2.2c1.5,0,3.2-1.1,5-3.4h0.5c0.2,0,0.3,0.2,0.5,0.5v0.3
		c0,0.9-1.1,2.1-3.4,3.6c-1,0.4-1.8,0.6-2.7,0.6h-0.2c-1.5-0.2-3.1-1-4.8-2.5c-1.8-1.5-3.5-7.4-4.8-17.8c-0.5-2.2-0.8-5.9-0.8-11.1
		v-0.9c0.2-10.5,1.9-17,5.1-19.5C123.2,229,124.1,228.7,124.6,228.7z"/>
	<path fill="#EFDEB4" stroke="#EFDEB4" stroke-width="2.2808" stroke-miterlimit="10" d="M146.8,226.7h0.4c0.4,0,0.7,0.7,1,2
		c-0.1,2.7-0.2,4.8-0.2,6.2c0,10.6,0.6,20.9,1.7,31.1c0.6,7,1.1,11.8,1.7,14.4v0.2c0,0.2-0.2,0.3-0.5,0.5h-0.5
		c-0.9,0-1.6-4.6-2.2-13.9c-0.5-5.2-0.8-8.4-0.8-9.7c-0.1,0-0.2-0.1-0.2-0.2c-2.1,0.1-3.6,0.2-4.5,0.2h-1.7
		c-0.2,6.8-0.4,11.3-0.4,13.6c0,2.9,0.1,6.2,0.4,9.9l-0.7,0.5c-0.8,0-1.2-0.5-1.2-1.5c0-1.2-0.1-4.4-0.2-9.7
		c0.3-11.7,0.8-22.4,1.3-32v-0.5c0-0.7-0.1-1.5-0.2-2.5c0.1-0.4,0.2-0.8,0.2-1.2l-0.2-1.7c0.1-1.1,0.2-2.1,0.2-3.2
		c0-0.1-0.1-0.7-0.2-1.7l0.7-0.5h0.5c0.3,0,0.6,0.6,0.7,1.8c-0.1,1.9-0.2,3.2-0.2,3.7c0,1.4,0.1,4,0.2,7.7
		c-0.5,7.9-0.8,13.1-0.8,15.6h2.5c0.7,0,1.8-0.1,3.4-0.2v-0.7c-0.4-5.6-0.7-12.3-0.7-20.3c0-0.9,0.1-2.9,0.2-6
		c-0.2-0.5-0.3-1-0.3-1.5L146.8,226.7z"/>
	<path fill="#EFDEB4" stroke="#EFDEB4" stroke-width="2.2808" stroke-miterlimit="10" d="M163.4,228.3h0.2c1.5,0.7,2.7,2.5,3.8,5.5
		c2.9,8.9,5,20.4,6.4,34.3c0.9,4.5,1.4,8.5,1.4,11.9c-0.1,0.3-0.5,0.5-1.1,0.5c-0.4-0.8-1-4.9-1.9-12.4c-0.2-0.8-0.8-4.2-1.6-10.3
		l-1.2-0.2c-5.6,0.5-8.4,1.1-8.4,1.7v6l-1.1,14.5c0.2,0.4,0.4,0.7,0.4,1c0,0.2-0.2,0.4-0.7,0.7c-0.9,0-1.4-0.6-1.4-1.7
		c0.8-11,1.2-17.6,1.2-19.8c-0.1-1.4-0.2-2.9-0.2-4.3c0.1-7.5,0.7-15.4,1.9-23.7C161.7,229.5,162.4,228.3,163.4,228.3z M163.4,230.4
		c-1.5,5.8-2.3,13.3-2.3,22.6c-0.1,0-0.2,1.3-0.2,3.8v0.5c3.3-0.9,6.4-1.4,9.5-1.4v-0.2c0-3.2-1.7-10.7-5.2-22.5
		C164.5,231.5,163.9,230.6,163.4,230.4z"/>
	<path fill="#EFDEB4" stroke="#EFDEB4" stroke-width="2.2808" stroke-miterlimit="10" d="M194.7,228.4h0.5l0.6,0.6
		c-0.2,1.1-0.3,2.4-0.3,3.9c0,2.7,1.1,12.4,3.4,29.3l1.4,15.9c-0.2,0.5-0.5,0.8-1.1,0.8c-0.5,0-1.5-3.7-3-11.1
		c-0.9-3.4-2.8-10.7-5.5-22c-1.6-4.5-2.7-8.4-3.4-11.8h-0.2l0.2,1.9c0,2.1-0.2,8.4-0.6,19c0.2,9.5,0.6,18.1,1.2,25.7v0.3
		c-0.2,0.4-0.5,0.6-1.1,0.6l-0.6-0.5l0.2-1.4c-0.6-6.8-1-15-1.2-24.6c0.4-10.3,0.6-16.6,0.6-18.7c0-0.5-0.1-1.7-0.2-3.6
		c0.1-0.2,0.2-0.4,0.2-0.5c-0.1-0.4-0.2-0.8-0.2-1.2c0-1.7,0.3-2.5,0.8-2.5c1,0,1.7,1.7,2.3,5.1c3.5,11.7,6.2,21.9,8.1,30.7
		c0.6,2.3,0.9,3.5,0.9,3.7h0.2c-0.5-5-1.7-14.8-3.6-29.3c-0.2-1.5-0.4-3.5-0.5-6.1c0.1-2,0.2-3.3,0.2-3.9L194.7,228.4z"/>
	<path fill="#EFDEB4" stroke="#EFDEB4" stroke-width="2.2808" stroke-miterlimit="10" d="M215.9,230.4h0.3c2,0,3.5,0.7,4.7,2.2v0.3
		c0,0.2-0.2,0.4-0.6,0.6c-0.2,0-0.9-0.4-2-1.1c-0.7-0.3-1.4-0.5-2.2-0.5h-0.6c-3.1,0.8-4.7,9.6-4.7,26.7c0,8,0.9,14.2,2.8,18.4
		c0.6,1.2,1.8,2.2,3.6,3h0.6c1.9-0.4,2.8-1.1,2.8-2.3c0.4,0,0.9-3.1,1.6-9.4v-7.6l-0.2-0.8c-0.1,0-0.2,0.1-0.2,0.2
		c-4.2-0.3-6.2-0.6-6.2-0.9l-0.2-0.8v-0.2c0-0.2,0.2-0.3,0.5-0.5h0.5c0.3,0.3,2.6,0.6,6.7,0.9c0.4,0.4,0.6,1.4,0.6,3v3.9
		c0,0.6-0.1,1.4-0.2,2.5c0.1,0.2,0.2,0.4,0.2,0.5c-0.7,8.2-1.9,12.3-3.6,12.3c0,0.2-0.8,0.5-2.3,0.8h-0.6c-1.7-0.4-3.2-1.4-4.5-3
		c-2.3-4.3-3.4-11-3.4-20.1c0-17.1,1.7-26.4,5.1-27.9L215.9,230.4z"/>
	<path fill="#EFDEB4" stroke="#EFDEB4" stroke-width="2.2808" stroke-miterlimit="10" d="M236.4,228.5h0.3c0.7,0,1.1,2.8,1.1,8.3v2
		c0,2-0.3,7.3-0.9,15.7c0,0.4,0.1,0.8,0.2,1.2c-0.1,5.4-0.2,9.7-0.2,12.9v10.1c0,0.2,0.1,0.7,0.3,1.6c-0.1,0.7-0.3,1.1-0.6,1.1H236
		c-0.4,0-0.6-1.4-0.6-4.2c0-18,0.3-30.5,0.9-37.3v-4.4c0-2.4-0.2-4.6-0.5-6.5C235.8,229,236,228.8,236.4,228.5z"/>
	<path fill="#EFDEB4" stroke="#EFDEB4" stroke-width="2.2808" stroke-miterlimit="10" d="M257.4,228.4h0.5l0.6,0.6
		c-0.2,1.1-0.3,2.4-0.3,3.9c0,2.7,1.1,12.4,3.4,29.3l1.4,15.9c-0.2,0.5-0.5,0.8-1.1,0.8c-0.5,0-1.5-3.7-3-11.1
		c-0.9-3.4-2.8-10.7-5.5-22c-1.6-4.5-2.7-8.4-3.4-11.8h-0.2l0.2,1.9c0,2.1-0.2,8.4-0.6,19c0.2,9.5,0.6,18.1,1.2,25.7v0.3
		c-0.2,0.4-0.5,0.6-1.1,0.6l-0.6-0.5l0.2-1.4c-0.6-6.8-1-15-1.2-24.6c0.4-10.3,0.6-16.6,0.6-18.7c0-0.5-0.1-1.7-0.2-3.6
		c0.1-0.2,0.2-0.4,0.2-0.5c-0.1-0.4-0.2-0.8-0.2-1.2c0-1.7,0.3-2.5,0.8-2.5c1,0,1.7,1.7,2.3,5.1c3.5,11.7,6.2,21.9,8.1,30.7
		c0.6,2.3,0.9,3.5,0.9,3.7h0.2c-0.5-5-1.7-14.8-3.6-29.3c-0.2-1.5-0.4-3.5-0.5-6.1c0.1-2,0.2-3.3,0.2-3.9L257.4,228.4z"/>
	<path fill="#EFDEB4" stroke="#EFDEB4" stroke-width="2.2808" stroke-miterlimit="10" d="M278.6,230.4h0.3c2,0,3.5,0.7,4.7,2.2v0.3
		c0,0.2-0.2,0.4-0.6,0.6c-0.2,0-0.9-0.4-2-1.1c-0.7-0.3-1.4-0.5-2.2-0.5h-0.6c-3.1,0.8-4.7,9.6-4.7,26.7c0,8,0.9,14.2,2.8,18.4
		c0.6,1.2,1.8,2.2,3.6,3h0.6c1.9-0.4,2.8-1.1,2.8-2.3c0.4,0,0.9-3.1,1.6-9.4v-7.6l-0.2-0.8c-0.1,0-0.2,0.1-0.2,0.2
		c-4.2-0.3-6.2-0.6-6.2-0.9l-0.2-0.8v-0.2c0-0.2,0.2-0.3,0.5-0.5h0.5c0.3,0.3,2.6,0.6,6.7,0.9c0.4,0.4,0.6,1.4,0.6,3v3.9
		c0,0.6-0.1,1.4-0.2,2.5c0.1,0.2,0.2,0.4,0.2,0.5c-0.7,8.2-1.9,12.3-3.6,12.3c0,0.2-0.8,0.5-2.3,0.8h-0.6c-1.7-0.4-3.2-1.4-4.5-3
		c-2.3-4.3-3.4-11-3.4-20.1c0-17.1,1.7-26.4,5.1-27.9L278.6,230.4z"/>
	<path fill="#EFDEB4" stroke="#EFDEB4" stroke-width="2.2808" stroke-miterlimit="10" d="M327.2,230.8l0.5,0.5v0.4
		c0,0.4-1.5,0.7-4.4,0.7h-4.4c-0.2,0-0.3,0.2-0.5,0.5l0.3,7.1c-0.1,0.7-0.2,1-0.2,1.1c0.9,15.7,1.4,27,1.4,33.8
		c0.1,0.2,0.2,0.3,0.2,0.4c-0.1,0.2-0.2,0.3-0.2,0.4l0.2,0.9c-0.2,0.4-0.3,0.5-0.5,0.5H319c-0.1,0-0.3-0.2-0.6-0.5
		c0-0.2,0.1-0.7,0.2-1.5c0-2.2-0.5-13.5-1.4-33.7c0-3.3-0.1-6.3-0.3-9l-0.3-0.2h-0.5l-5,0.4c-0.3-0.3-0.5-0.7-0.5-1.2
		c0-0.2,0.2-0.3,0.6-0.5c0.7,0.2,1.1,0.3,1.2,0.3c2-0.2,3.4-0.3,4.2-0.3h6.4C324.4,231.1,325.8,231,327.2,230.8z"/>
	<path fill="#EFDEB4" stroke="#EFDEB4" stroke-width="2.2808" stroke-miterlimit="10" d="M342,226.7h0.4c0.4,0,0.7,0.7,1,2
		c-0.1,2.7-0.2,4.8-0.2,6.2c0,10.6,0.6,20.9,1.7,31.1c0.6,7,1.1,11.8,1.7,14.4v0.2c0,0.2-0.2,0.3-0.5,0.5h-0.5
		c-0.9,0-1.6-4.6-2.2-13.9c-0.5-5.2-0.8-8.4-0.8-9.7c-0.1,0-0.2-0.1-0.2-0.2c-2.1,0.1-3.6,0.2-4.5,0.2h-1.7
		c-0.2,6.8-0.4,11.3-0.4,13.6c0,2.9,0.1,6.2,0.4,9.9l-0.7,0.5c-0.8,0-1.2-0.5-1.2-1.5c0-1.2-0.1-4.4-0.2-9.7
		c0.3-11.7,0.8-22.4,1.3-32v-0.5c0-0.7-0.1-1.5-0.2-2.5c0.1-0.4,0.2-0.8,0.2-1.2l-0.2-1.7c0.1-1.1,0.2-2.1,0.2-3.2
		c0-0.1-0.1-0.7-0.2-1.7l0.7-0.5h0.5c0.3,0,0.6,0.6,0.7,1.8c-0.1,1.9-0.2,3.2-0.2,3.7c0,1.4,0.1,4,0.2,7.7
		c-0.5,7.9-0.8,13.1-0.8,15.6h2.5c0.7,0,1.8-0.1,3.4-0.2v-0.7c-0.4-5.6-0.7-12.3-0.7-20.3c0-0.9,0.1-2.9,0.2-6
		c-0.2-0.5-0.3-1-0.3-1.5L342,226.7z"/>
	<path fill="#EFDEB4" stroke="#EFDEB4" stroke-width="2.2808" stroke-miterlimit="10" d="M356,227.3c1.1,0.4,2.3,0.6,3.6,0.6
		c2.1-0.1,3.5-0.2,4.2-0.2l0.3,0.5v0.6c0,0.2-0.2,0.3-0.5,0.5c-0.6,0-2,0.1-4.4,0.2l-1.9-0.2c0.3,2,0.5,4.9,0.5,8.6
		c-0.6,9.1-0.9,14.4-0.9,16.1c0,0.3,2.2,0.6,6.5,0.9l0.5,0.6v0.3c-0.1,0.2-0.3,0.4-0.8,0.6c-1.6-0.3-3.8-0.5-6.4-0.5
		c-0.6,10.1-0.9,17.1-0.9,20.9v2.8c0,0.2,0.1,0.3,0.3,0.3h0.2l5.9-0.6v0.2l0.3-0.2h0.6c0.2,0,0.4,0.2,0.6,0.6v0.3
		c0,0.2-0.2,0.4-0.6,0.6h-1.6l-4.8,0.6c-0.2-0.1-0.4-0.2-0.5-0.2l-0.3,0.2c-1.1,0-1.6-0.6-1.7-1.9V277c0-4.4,0.7-17.4,2-39.1v-0.6
		c0-4.8-0.3-8-0.9-9.4C355.4,227.7,355.6,227.5,356,227.3z"/>
	<path fill="#EFDEB4" stroke="#EFDEB4" stroke-width="2.2808" stroke-miterlimit="10" d="M410.9,230.2h0.5c0.2,0,0.3,0.2,0.5,0.5
		c-1.1,22.6-1.9,38.2-2.2,46.8c-0.3,1.9-0.7,2.8-1.1,2.8h-0.3c-0.5,0-1.5-2.6-3-7.8c-2.7-8.8-4.1-13.6-4.1-14.5H401
		c-0.8,12.1-1.2,19.8-1.2,23.2l-0.5,0.3h-0.5c-0.4,0-0.8-1.8-1.2-5.3c-2.3-10.8-4.6-24.7-6.9-41.8c-0.1,0-0.3-0.7-0.6-2.2
		c0-0.2,0.2-0.4,0.6-0.6h0.6c0.5,0,1,3,1.7,8.9c1.9,12.3,3.1,20.2,3.7,23.5l1.6,8.4h0.2c0.9-13.7,1.4-20.9,1.7-21.7l0.8-0.2
		c0.5,0,1,2,1.4,6.1c0.5,2.5,1.8,7.4,4.1,14.5l1.4,5l0.3-0.2c0.6-18.6,1.4-33.8,2.2-45.5L410.9,230.2z"/>
	<path fill="#EFDEB4" stroke="#EFDEB4" stroke-width="2.2808" stroke-miterlimit="10" d="M425.9,230.5h1.2c0.8,0,1.7,1.7,2.8,5.1
		c1,7.7,1.6,15.4,1.6,23.1c0,12-0.7,19.1-2.2,21.4c-0.8,0.9-1.5,1.4-2.2,1.4h-0.6c-2.8,0-4.7-4.5-5.5-13.6
		c-0.2-3.5-0.4-8.4-0.6-14.8v-3c0-6.3,1-12,3-16.8c-0.1-0.2-0.2-0.4-0.2-0.6L425.9,230.5z M421.8,250.5c0.3,10.6,0.8,17.8,1.2,21.7
		c0.9,5.2,2.1,7.8,3.7,7.8c2.1,0,3.1-7,3.1-20.9v-0.3c0-8.9-0.6-16.8-1.7-23.5c-0.8-2.1-1.4-3.1-1.7-3.1h-0.2
		c-1.9,1.2-3.3,5.8-4.2,13.9L421.8,250.5z"/>
	<path fill="#EFDEB4" stroke="#EFDEB4" stroke-width="2.2808" stroke-miterlimit="10" d="M440.5,224h0.3c0.3,0.4,1.2,0.7,2.8,0.9
		c2,0.8,3.6,2.3,4.8,4.4c1.8,4.3,2.7,7.5,2.7,9.5v1.6c0,6.8-2,11.7-5.9,14.8c4.6,1.1,7.2,6.5,8,16.2v5.9c0,0.9,0.1,2.2,0.2,3.9
		l-0.5,0.3h-0.5l-0.6-0.5c-0.1-2.1-0.2-3.6-0.2-4.7v-5.6c0-3.9-1.2-7.9-3.6-12c-1.7-1.6-3.1-2.3-4.4-2.3h-0.2c0.1,2.2,0.2,3.9,0.2,5
		v5.9c0.2,5.1,0.3,8.1,0.3,8.7v0.3c-0.2,0.4-0.5,0.6-0.9,0.6c-0.2,0-0.4-0.2-0.8-0.6l0.2-1.1c-0.2-4.4-0.3-7.3-0.3-8.7v-9.4
		c-0.4,0-0.8-0.2-0.9-0.6v-0.5c0.2-0.4,0.5-0.6,0.8-0.6c-0.5-14.3-1.2-24.6-2-31L440.5,224z M441.7,226.2c0.6,7.6,1.2,17,1.7,28.2
		c4.1-2.8,6.1-7.2,6.1-13.3V239c0-2.7-1.1-6.2-3.4-10.4c-1.7-1.6-3-2.3-3.9-2.3H441.7z"/>
	<path fill="#EFDEB4" stroke="#EFDEB4" stroke-width="2.2808" stroke-miterlimit="10" d="M461.5,225.6h0.2c0.2,0,0.4,0.2,0.6,0.6
		c0,0.5-0.1,0.8-0.3,0.8l0.2,0.3c0.7,11.3,1.1,20.9,1.1,28.7c0.3,2.5,0.5,6,0.5,10.4V280h8.4c0.2,0,0.3,0.2,0.5,0.5v0.5
		c0,0.4-0.9,0.6-2.7,0.6h-7.2c-0.2,0-0.4-0.2-0.6-0.6V280c0-0.7,0.1-1.1,0.2-1.1l-0.2-1.9v-11.4c-0.4-13.7-0.8-25.1-1.2-34.1
		l-0.5-5.1C460.6,225.8,460.9,225.6,461.5,225.6z"/>
	<path fill="#EFDEB4" stroke="#EFDEB4" stroke-width="2.2808" stroke-miterlimit="10" d="M479.7,227.4h0.9c0.5,0.5,1.7,1.1,3.7,1.7
		c3,1.8,5,4.4,6.2,7.8c1,3.5,1.6,6.2,1.6,8.3v4.7c0,0.4,0.1,0.8,0.2,1.2c-0.7,10.3-1.6,16.7-2.8,19.2c0,1.1-1.1,3.9-3.3,8.3
		c-1.4,2-2.2,3-2.5,3c-0.7-0.2-1.1-0.4-1.1-0.6v-0.6c0.5-0.8,0.8-1.5,0.8-2.2c-0.2-0.4-0.3-0.7-0.3-0.9c0.1-0.3,0.2-0.5,0.3-0.5
		c-0.1-1.4-0.2-2.4-0.2-3.3c0-25.8-1.4-40.8-4.2-45.1v-0.3C479.1,227.9,479.3,227.7,479.7,227.4z M481.6,229.8v0.2
		c2.2,6.7,3.3,21.2,3.3,43.3v0.6c0.1,2.1,0.2,3.2,0.2,3.4c1.8-2.7,3.3-7.1,4.5-13.4c0.5-3.4,0.9-7.6,1.2-12.6
		c0-8.2-0.9-13.6-2.8-16.2C486.8,232.7,484.7,230.9,481.6,229.8z"/>
</g>
<circle fill="none" stroke="#EFDEB4" stroke-width="0.7774" stroke-miterlimit="10" cx="561.2" cy="570.7" r="25.6"/>
<circle fill="none" stroke="#EFDEB4" stroke-width="0.7774" stroke-miterlimit="10" cx="562.7" cy="567.2" r="25.6"/>
<circle fill="none" stroke="#EFDEB4" stroke-width="0.7774" stroke-miterlimit="10" cx="563.6" cy="569.4" r="26.3"/>
<text transform="matrix(1 0 0 1 542.9404 570.6758)" fill="#EFDEB4" font-family="'Frutiger-Cn'" font-size="16.1602">POP</text>
<g>
	
		<text transform="matrix(1 0 0 1 563.2646 578.2852)" fill="#EFDEB4" font-family="'Frutiger-Cn'" font-size="16.1602" letter-spacing="-1">P</text>
	<text transform="matrix(1 0 0 1 569.7441 578.2852)" fill="#EFDEB4" font-family="'Frutiger-Cn'" font-size="16.1602">IE</text>
</g>
</svg>
