<?xml version="1.0" encoding="utf-8"?>
<!-- Generator: Adobe Illustrator 17.1.0, SVG Export Plug-In . SVG Version: 6.00 Build 0)  -->
<!DOCTYPE svg PUBLIC "-//W3C//DTD SVG 1.1//EN" "http://www.w3.org/Graphics/SVG/1.1/DTD/svg11.dtd">
<svg version="1.1" xmlns="http://www.w3.org/2000/svg" xmlns:xlink="http://www.w3.org/1999/xlink" x="0px" y="0px"
	 viewBox="0 0 680.4 488.2" enable-background="new 0 0 680.4 488.2" xml:space="preserve">
<g id="Layer_4">
</g>
<g id="Layer_1">
</g>
<g id="Layer_2">
</g>
<g id="Layer_3">
	<g>
		
			<radialGradient id="SVGID_1_" cx="-403.0847" cy="492.1876" r="75.4257" gradientTransform="matrix(-0.2419 -0.9703 0.9703 -0.2419 29.8543 135.5227)" gradientUnits="userSpaceOnUse">
			<stop  offset="0.224" style="stop-color:#D9B077"/>
			<stop  offset="0.8794" style="stop-color:#D89349"/>
			<stop  offset="1" style="stop-color:#834830"/>
		</radialGradient>
		<circle fill="url(#SVGID_1_)" cx="604.9" cy="407.6" r="75.4"/>
		<g>
			
				<radialGradient id="SVGID_2_" cx="-402.8013" cy="492.813" r="60.8858" gradientTransform="matrix(-0.2419 -0.9703 0.9703 -0.2419 29.8543 135.5227)" gradientUnits="userSpaceOnUse">
				<stop  offset="0" style="stop-color:#E99F3C"/>
				<stop  offset="0.224" style="stop-color:#D9B077"/>
				<stop  offset="0.4111" style="stop-color:#D8A668"/>
				<stop  offset="0.6634" style="stop-color:#CC8B48"/>
				<stop  offset="0.8451" style="stop-color:#CA8643"/>
				<stop  offset="1" style="stop-color:#A16830"/>
			</radialGradient>
			<circle fill="url(#SVGID_2_)" cx="605.5" cy="407.1" r="60.9"/>
		</g>
		
			<linearGradient id="SVGID_3_" gradientUnits="userSpaceOnUse" x1="-408.1419" y1="473.3414" x2="-398.0274" y2="473.3414" gradientTransform="matrix(-0.2419 -0.9703 0.9703 -0.2419 29.8543 135.5227)">
			<stop  offset="0.1093" style="stop-color:#502412"/>
			<stop  offset="0.5067" style="stop-color:#A46726"/>
			<stop  offset="0.8627" style="stop-color:#341F17"/>
		</linearGradient>
		<path fill="url(#SVGID_3_)" stroke="#FFFFFF" stroke-width="8.938824e-02" stroke-miterlimit="10" d="M585.9,408.2
			c1,0.6,7.8,0.1,8.2,1.2c0.4,1.3-5.4,5.1-6.1,6.4c-1.3,2.3-4.4,2.7-6.7,1.3s-3-4.2-1.7-6.5S583.6,406.9,585.9,408.2z"/>
		
			<linearGradient id="SVGID_4_" gradientUnits="userSpaceOnUse" x1="-407.8585" y1="512.0538" x2="-397.744" y2="512.0538" gradientTransform="matrix(-0.2419 -0.9703 0.9703 -0.2419 29.8543 135.5227)">
			<stop  offset="0.1093" style="stop-color:#502412"/>
			<stop  offset="0.5067" style="stop-color:#A46726"/>
			<stop  offset="0.8627" style="stop-color:#341F17"/>
		</linearGradient>
		<path fill="url(#SVGID_4_)" stroke="#FFFFFF" stroke-width="8.938824e-02" stroke-miterlimit="10" d="M624.9,406.4
			c-1-0.6-7.8-0.1-8.2-1.2c-0.4-1.3,5.4-5.1,6.1-6.4c1.3-2.3,4.4-2.7,6.7-1.3s3,4.2,1.7,6.5S627.2,407.7,624.9,406.4z"/>
		
			<linearGradient id="SVGID_5_" gradientUnits="userSpaceOnUse" x1="-389.9554" y1="492.1876" x2="-374.2055" y2="492.1876" gradientTransform="matrix(-0.2419 -0.9703 0.9703 -0.2419 29.8543 135.5227)">
			<stop  offset="0.1093" style="stop-color:#502412"/>
			<stop  offset="0.5067" style="stop-color:#A46726"/>
			<stop  offset="0.8627" style="stop-color:#341F17"/>
		</linearGradient>
		<path fill="url(#SVGID_5_)" stroke="#FFFFFF" stroke-width="8.938824e-02" stroke-miterlimit="10" d="M603.8,386.4
			c-0.6,1-0.1,7.8-1.2,8.2c-1.3,0.4-5.1-5.4-6.4-6.1c-2.3-1.3-2.7-4.4-1.3-6.7s4.2-3,6.5-1.7C603.7,381.4,605.1,384.1,603.8,386.4z"
			/>
		
			<linearGradient id="SVGID_6_" gradientUnits="userSpaceOnUse" x1="-431.5299" y1="494.2475" x2="-415.7801" y2="494.2475" gradientTransform="matrix(-0.2419 -0.9703 0.9703 -0.2419 29.8543 135.5227)">
			<stop  offset="0.1093" style="stop-color:#502412"/>
			<stop  offset="0.5067" style="stop-color:#A46726"/>
			<stop  offset="0.8627" style="stop-color:#341F17"/>
		</linearGradient>
		<path fill="url(#SVGID_6_)" stroke="#FFFFFF" stroke-width="8.938824e-02" stroke-miterlimit="10" d="M608,427.8
			c0.6-1,0.1-7.8,1.2-8.2c1.3-0.4,5.1,5.4,6.4,6.1c2.3,1.3,2.7,4.4,1.3,6.7c-1.3,2.3-4.2,3-6.5,1.7S606.7,430.1,608,427.8z"/>
		
			<radialGradient id="SVGID_7_" cx="841.4161" cy="-388.5799" r="6.1204" gradientTransform="matrix(0.2419 0.9703 -0.8881 0.2214 56.8266 -323.2447)" gradientUnits="userSpaceOnUse">
			<stop  offset="0.4014" style="stop-color:#D89349"/>
			<stop  offset="1" style="stop-color:#B97640"/>
		</radialGradient>
		<path opacity="0.74" fill="url(#SVGID_7_)" d="M599.5,410.1c-0.7,0.2-1.4-0.3-1.6-1.1l0,0c-0.2-0.8,0.2-1.5,0.9-1.7l12.6-3.2
			c0.7-0.2,1.4,0.3,1.6,1.1l0,0c0.2,0.8-0.2,1.5-0.9,1.7L599.5,410.1z"/>
		
			<radialGradient id="SVGID_8_" cx="-224.0615" cy="-593.2736" r="6.1204" gradientTransform="matrix(-0.9703 0.2419 -0.2214 -0.8881 256.711 -65.5546)" gradientUnits="userSpaceOnUse">
			<stop  offset="0.4014" style="stop-color:#D89349"/>
			<stop  offset="1" style="stop-color:#B97640"/>
		</radialGradient>
		<path opacity="0.74" fill="url(#SVGID_8_)" d="M602.5,401.2c-0.2-0.7,0.3-1.4,1.1-1.6l0,0c0.8-0.2,1.5,0.2,1.7,0.9l3.2,12.6
			c0.2,0.7-0.3,1.4-1.1,1.6l0,0c-0.8,0.2-1.5-0.2-1.7-0.9L602.5,401.2z"/>
		
			<radialGradient id="SVGID_9_" cx="508.0088" cy="972.9906" r="6.1204" gradientTransform="matrix(0.891 -0.454 0.3279 0.6435 -198.5202 -48.1267)" gradientUnits="userSpaceOnUse">
			<stop  offset="0.4014" style="stop-color:#D89349"/>
			<stop  offset="1" style="stop-color:#B97640"/>
		</radialGradient>
		<path fill="url(#SVGID_9_)" d="M576.7,351.3c0.3,0.5-0.1,1.2-0.8,1.6l0,0c-0.7,0.4-1.5,0.2-1.7-0.3l-4.7-9.2
			c-0.3-0.5,0.1-1.2,0.8-1.6l0,0c0.7-0.4,1.5-0.2,1.7,0.3L576.7,351.3z"/>
		
			<radialGradient id="SVGID_10_" cx="627.6266" cy="749.3065" r="6.1204" gradientTransform="matrix(0.9654 -0.2608 0.1884 0.6972 -161.5325 -16.6242)" gradientUnits="userSpaceOnUse">
			<stop  offset="0.4014" style="stop-color:#D89349"/>
			<stop  offset="1" style="stop-color:#B97640"/>
		</radialGradient>
		<path fill="url(#SVGID_10_)" d="M588.2,346.7c0.1,0.5-0.3,1.2-1.1,1.4l0,0c-0.8,0.2-1.5-0.1-1.6-0.6l-2.7-9.9
			c-0.1-0.5,0.3-1.2,1.1-1.4l0,0c0.8-0.2,1.5,0.1,1.6,0.6L588.2,346.7z"/>
		
			<radialGradient id="SVGID_11_" cx="341.5355" cy="1038.1232" r="6.1204" gradientTransform="matrix(0.766 -0.6428 0.4642 0.5533 -183.0626 1.3739)" gradientUnits="userSpaceOnUse">
			<stop  offset="0.4014" style="stop-color:#D89349"/>
			<stop  offset="1" style="stop-color:#B97640"/>
		</radialGradient>
		<path fill="url(#SVGID_11_)" d="M564.9,359.2c0.4,0.4,0.2,1.2-0.4,1.7l0,0c-0.6,0.5-1.4,0.6-1.8,0.1l-6.6-7.9
			c-0.4-0.4-0.2-1.2,0.4-1.7l0,0c0.6-0.5,1.4-0.6,1.8-0.1L564.9,359.2z"/>
		
			<radialGradient id="SVGID_12_" cx="168.7471" cy="1049.735" r="6.1204" gradientTransform="matrix(0.6018 -0.7986 0.5768 0.4346 -156.866 46.1285)" gradientUnits="userSpaceOnUse">
			<stop  offset="0.4014" style="stop-color:#D89349"/>
			<stop  offset="1" style="stop-color:#B97640"/>
		</radialGradient>
		<path fill="url(#SVGID_12_)" d="M555.1,369.6c0.5,0.3,0.4,1.1,0,1.8l0,0c-0.5,0.6-1.2,0.9-1.7,0.5l-8.2-6.2
			c-0.5-0.3-0.4-1.1,0-1.8l0,0c0.5-0.6,1.2-0.9,1.7-0.5L555.1,369.6z"/>
		
			<radialGradient id="SVGID_13_" cx="-1.4992" cy="1007.2305" r="6.1204" gradientTransform="matrix(0.4067 -0.9135 0.6598 0.2938 -121.2732 83.8432)" gradientUnits="userSpaceOnUse">
			<stop  offset="0.4014" style="stop-color:#D89349"/>
			<stop  offset="1" style="stop-color:#B97640"/>
		</radialGradient>
		<path fill="url(#SVGID_13_)" d="M547.9,381.9c0.5,0.2,0.7,1,0.4,1.7l0,0c-0.3,0.7-1,1.1-1.5,0.9l-9.4-4.2c-0.5-0.2-0.7-1-0.4-1.7
			l0,0c0.3-0.7,1-1.1,1.5-0.9L547.9,381.9z"/>
		
			<radialGradient id="SVGID_14_" cx="-160.4767" cy="912.7888" r="6.1204" gradientTransform="matrix(0.1908 -0.9816 0.709 0.1378 -78.1087 112.5845)" gradientUnits="userSpaceOnUse">
			<stop  offset="0.4014" style="stop-color:#D89349"/>
			<stop  offset="1" style="stop-color:#B97640"/>
		</radialGradient>
		<path fill="url(#SVGID_14_)" d="M543.7,395.5c0.6,0.1,0.9,0.8,0.7,1.6l0,0c-0.1,0.8-0.7,1.3-1.3,1.2l-10.1-2
			c-0.6-0.1-0.9-0.8-0.7-1.6l0,0c0.1-0.8,0.7-1.3,1.3-1.2L543.7,395.5z"/>
		
			<radialGradient id="SVGID_15_" cx="-300.0361" cy="771.2507" r="6.1204" gradientTransform="matrix(-3.489950e-02 -0.9994 0.7218 -2.520519e-02 -29.5851 130.8793)" gradientUnits="userSpaceOnUse">
			<stop  offset="0.4014" style="stop-color:#D89349"/>
			<stop  offset="1" style="stop-color:#B97640"/>
		</radialGradient>
		<path fill="url(#SVGID_15_)" d="M542.6,409.7c0.6,0,1,0.6,1.1,1.4l0,0c0,0.8-0.4,1.4-1,1.5l-10.3,0.4c-0.6,0-1-0.6-1.1-1.4l0,0
			c0-0.8,0.4-1.4,1-1.5L542.6,409.7z"/>
		
			<radialGradient id="SVGID_16_" cx="-413.0237" cy="589.8716" r="6.1204" gradientTransform="matrix(-0.2588 -0.9659 0.6976 -0.1869 21.8103 137.7898)" gradientUnits="userSpaceOnUse">
			<stop  offset="0.4014" style="stop-color:#D89349"/>
			<stop  offset="1" style="stop-color:#B97640"/>
		</radialGradient>
		<path fill="url(#SVGID_16_)" d="M544.8,423.8c0.5-0.1,1.2,0.3,1.4,1.1l0,0c0.2,0.8-0.1,1.5-0.6,1.6l-9.9,2.7
			c-0.5,0.1-1.2-0.3-1.4-1.1l0,0c-0.2-0.8,0.1-1.5,0.6-1.6L544.8,423.8z"/>
		
			<radialGradient id="SVGID_17_" cx="-493.6477" cy="377.9489" r="6.1204" gradientTransform="matrix(-0.4695 -0.8829 0.6377 -0.3391 73.443 132.9618)" gradientUnits="userSpaceOnUse">
			<stop  offset="0.4014" style="stop-color:#D89349"/>
			<stop  offset="1" style="stop-color:#B97640"/>
		</radialGradient>
		<path fill="url(#SVGID_17_)" d="M550.1,437c0.5-0.3,1.2,0.1,1.6,0.8l0,0c0.4,0.7,0.3,1.5-0.2,1.7l-9.1,4.8
			c-0.5,0.3-1.2-0.1-1.6-0.8l0,0c-0.4-0.7-0.3-1.5,0.2-1.7L550.1,437z"/>
		
			<radialGradient id="SVGID_18_" cx="-537.7755" cy="146.3457" r="6.1204" gradientTransform="matrix(-0.6561 -0.7547 0.5451 -0.4738 122.6662 116.6426)" gradientUnits="userSpaceOnUse">
			<stop  offset="0.4014" style="stop-color:#D89349"/>
			<stop  offset="1" style="stop-color:#B97640"/>
		</radialGradient>
		<path fill="url(#SVGID_18_)" d="M558.2,448.7c0.4-0.4,1.2-0.2,1.7,0.4l0,0c0.5,0.6,0.6,1.4,0.2,1.7l-7.8,6.7
			c-0.4,0.4-1.2,0.2-1.7-0.4l0,0c-0.5-0.6-0.6-1.4-0.2-1.7L558.2,448.7z"/>
		
			<radialGradient id="SVGID_19_" cx="-543.1448" cy="-93.066" r="6.1204" gradientTransform="matrix(-0.809 -0.5878 0.4245 -0.5843 166.9568 89.6689)" gradientUnits="userSpaceOnUse">
			<stop  offset="0.4014" style="stop-color:#D89349"/>
			<stop  offset="1" style="stop-color:#B97640"/>
		</radialGradient>
		<path fill="url(#SVGID_19_)" d="M568.7,458.3c0.3-0.5,1.1-0.5,1.8,0l0,0c0.6,0.5,0.9,1.2,0.5,1.7l-6,8.3c-0.3,0.5-1.1,0.5-1.8,0
			l0,0c-0.6-0.5-0.9-1.2-0.5-1.7L568.7,458.3z"/>
		
			<radialGradient id="SVGID_20_" cx="-509.4807" cy="-328.014" r="6.1204" gradientTransform="matrix(-0.9205 -0.3907 0.2822 -0.6648 204.0445 53.4234)" gradientUnits="userSpaceOnUse">
			<stop  offset="0.4014" style="stop-color:#D89349"/>
			<stop  offset="1" style="stop-color:#B97640"/>
		</radialGradient>
		<path fill="url(#SVGID_20_)" d="M581.2,465.3c0.2-0.5,1-0.7,1.7-0.4l0,0c0.7,0.3,1.1,1,0.9,1.5l-4,9.5c-0.2,0.5-1,0.7-1.7,0.4l0,0
			c-0.7-0.3-1.1-1-0.9-1.5L581.2,465.3z"/>
		
			<radialGradient id="SVGID_21_" cx="-438.5086" cy="-546.4548" r="6.1204" gradientTransform="matrix(-0.9848 -0.1736 0.1254 -0.7112 232.0282 9.7638)" gradientUnits="userSpaceOnUse">
			<stop  offset="0.4014" style="stop-color:#D89349"/>
			<stop  offset="1" style="stop-color:#B97640"/>
		</radialGradient>
		<path fill="url(#SVGID_21_)" d="M594.8,469.3c0.1-0.6,0.8-0.9,1.6-0.8l0,0c0.8,0.1,1.3,0.7,1.2,1.3l-1.8,10.1
			c-0.1,0.6-0.8,0.9-1.6,0.8l0,0c-0.8-0.1-1.3-0.7-1.2-1.3L594.8,469.3z"/>
		
			<radialGradient id="SVGID_22_" cx="-333.8666" cy="-737.1914" r="6.1204" gradientTransform="matrix(-0.9986 5.233596e-02 -3.779818e-02 -0.7212 249.4734 -39.0717)" gradientUnits="userSpaceOnUse">
			<stop  offset="0.4014" style="stop-color:#D89349"/>
			<stop  offset="1" style="stop-color:#B97640"/>
		</radialGradient>
		<path fill="url(#SVGID_22_)" d="M609.1,470.1c0-0.6,0.6-1.1,1.4-1.1l0,0c0.8,0,1.4,0.4,1.5,1l0.5,10.3c0,0.6-0.6,1.1-1.4,1.1l0,0
			c-0.8,0-1.4-0.4-1.5-1L609.1,470.1z"/>
		
			<radialGradient id="SVGID_23_" cx="-200.9186" cy="-890.4465" r="6.1204" gradientTransform="matrix(-0.9613 0.2756 -0.1991 -0.6942 255.4859 -90.5798)" gradientUnits="userSpaceOnUse">
			<stop  offset="0.4014" style="stop-color:#D89349"/>
			<stop  offset="1" style="stop-color:#B97640"/>
		</radialGradient>
		<path fill="url(#SVGID_23_)" d="M623.1,467.7c-0.2-0.5,0.3-1.2,1.1-1.4l0,0c0.8-0.2,1.5,0.1,1.7,0.6l2.8,9.9
			c0.2,0.5-0.3,1.2-1.1,1.4l0,0c-0.8,0.2-1.5-0.1-1.7-0.6L623.1,467.7z"/>
		
			<radialGradient id="SVGID_24_" cx="-46.4796" cy="-998.3642" r="6.1204" gradientTransform="matrix(-0.8746 0.4848 -0.3501 -0.6317 249.7574 -142.1204)" gradientUnits="userSpaceOnUse">
			<stop  offset="0.4014" style="stop-color:#D89349"/>
			<stop  offset="1" style="stop-color:#B97640"/>
		</radialGradient>
		<path fill="url(#SVGID_24_)" d="M636.2,462.2c-0.3-0.5,0.1-1.2,0.7-1.6l0,0c0.7-0.4,1.5-0.3,1.7,0.2l5,9c0.3,0.5-0.1,1.2-0.7,1.6
			l0,0c-0.7,0.4-1.5,0.3-1.7-0.2L636.2,462.2z"/>
		
			<radialGradient id="SVGID_25_" cx="121.534" cy="-1055.4127" r="6.1204" gradientTransform="matrix(-0.7431 0.6691 -0.4833 -0.5367 232.5817 -191.0513)" gradientUnits="userSpaceOnUse">
			<stop  offset="0.4014" style="stop-color:#D89349"/>
			<stop  offset="1" style="stop-color:#B97640"/>
		</radialGradient>
		<path fill="url(#SVGID_25_)" d="M647.8,453.9c-0.4-0.4-0.2-1.2,0.4-1.7l0,0c0.6-0.5,1.4-0.6,1.7-0.2l6.9,7.6
			c0.4,0.4,0.2,1.2-0.4,1.7l0,0c-0.6,0.5-1.4,0.6-1.7,0.2L647.8,453.9z"/>
		
			<radialGradient id="SVGID_26_" cx="294.5098" cy="-1058.6678" r="6.1204" gradientTransform="matrix(-0.5736 0.8192 -0.5916 -0.4142 204.8391 -234.8644)" gradientUnits="userSpaceOnUse">
			<stop  offset="0.4014" style="stop-color:#D89349"/>
			<stop  offset="1" style="stop-color:#B97640"/>
		</radialGradient>
		<path fill="url(#SVGID_26_)" d="M657.2,443.2c-0.5-0.3-0.5-1.1,0-1.8l0,0c0.5-0.6,1.2-0.9,1.7-0.6l8.4,5.9c0.5,0.3,0.5,1.1,0,1.8
			l0,0c-0.5,0.6-1.2,0.9-1.7,0.6L657.2,443.2z"/>
		
			<radialGradient id="SVGID_27_" cx="463.5811" cy="-1007.9626" r="6.1204" gradientTransform="matrix(-0.3746 0.9272 -0.6696 -0.2705 167.9518 -271.3139)" gradientUnits="userSpaceOnUse">
			<stop  offset="0.4014" style="stop-color:#D89349"/>
			<stop  offset="1" style="stop-color:#B97640"/>
		</radialGradient>
		<path fill="url(#SVGID_27_)" d="M664,430.6c-0.5-0.2-0.7-1-0.4-1.7l0,0c0.3-0.7,1-1.1,1.5-0.9l9.5,3.8c0.5,0.2,0.7,1,0.4,1.7l0,0
			c-0.3,0.7-1,1.1-1.5,0.9L664,430.6z"/>
		
			<radialGradient id="SVGID_28_" cx="620.0813" cy="-905.8962" r="6.1204" gradientTransform="matrix(-0.1564 0.9877 -0.7133 -0.113 123.8105 -298.5313)" gradientUnits="userSpaceOnUse">
			<stop  offset="0.4014" style="stop-color:#D89349"/>
			<stop  offset="1" style="stop-color:#B97640"/>
		</radialGradient>
		<path fill="url(#SVGID_28_)" d="M667.7,416.9c-0.6-0.1-0.9-0.8-0.8-1.6l0,0c0.1-0.8,0.7-1.3,1.2-1.2l10.2,1.6
			c0.6,0.1,0.9,0.8,0.8,1.6l0,0c-0.1,0.8-0.7,1.3-1.2,1.2L667.7,416.9z"/>
		
			<radialGradient id="SVGID_29_" cx="755.9882" cy="-757.7006" r="6.1204" gradientTransform="matrix(6.975647e-02 0.9976 -0.7205 5.037967e-02 74.678 -315.1216)" gradientUnits="userSpaceOnUse">
			<stop  offset="0.4014" style="stop-color:#D89349"/>
			<stop  offset="1" style="stop-color:#B97640"/>
		</radialGradient>
		<path fill="url(#SVGID_29_)" d="M668.3,402.6c-0.6,0-1.1-0.6-1.1-1.3l0,0c-0.1-0.8,0.4-1.5,0.9-1.5l10.3-0.7
			c0.6,0,1.1,0.6,1.1,1.3l0,0c0.1,0.8-0.4,1.5-0.9,1.5L668.3,402.6z"/>
		
			<radialGradient id="SVGID_30_" cx="864.3353" cy="-570.9721" r="6.1204" gradientTransform="matrix(0.2924 0.9563 -0.6907 0.2112 23.0728 -320.2342)" gradientUnits="userSpaceOnUse">
			<stop  offset="0.4014" style="stop-color:#D89349"/>
			<stop  offset="1" style="stop-color:#B97640"/>
		</radialGradient>
		<path fill="url(#SVGID_30_)" d="M665.6,388.6c-0.5,0.2-1.2-0.3-1.4-1.1l0,0c-0.2-0.8,0-1.5,0.6-1.7l9.8-3c0.5-0.2,1.2,0.3,1.4,1.1
			l0,0c0.2,0.8,0,1.5-0.6,1.7L665.6,388.6z"/>
		
			<radialGradient id="SVGID_31_" cx="939.5687" cy="-355.2825" r="6.1204" gradientTransform="matrix(0.5 0.866 -0.6255 0.3611 -28.3599 -313.6071)" gradientUnits="userSpaceOnUse">
			<stop  offset="0.4014" style="stop-color:#D89349"/>
			<stop  offset="1" style="stop-color:#B97640"/>
		</radialGradient>
		<path fill="url(#SVGID_31_)" d="M659.9,375.6c-0.5,0.3-1.2,0-1.6-0.7l0,0c-0.4-0.7-0.3-1.5,0.2-1.7l8.9-5.1c0.5-0.3,1.2,0,1.6,0.7
			l0,0c0.4,0.7,0.3,1.5-0.2,1.7L659.9,375.6z"/>
		
			<radialGradient id="SVGID_32_" cx="977.8318" cy="-121.6881" r="6.1204" gradientTransform="matrix(0.682 0.7314 -0.5282 0.4926 -76.9836 -295.58)" gradientUnits="userSpaceOnUse">
			<stop  offset="0.4014" style="stop-color:#D89349"/>
			<stop  offset="1" style="stop-color:#B97640"/>
		</radialGradient>
		<path fill="url(#SVGID_32_)" d="M651.4,364.2c-0.4,0.4-1.2,0.2-1.7-0.3l0,0c-0.5-0.6-0.6-1.4-0.2-1.7l7.5-7
			c0.4-0.4,1.2-0.2,1.7,0.3l0,0c0.5,0.6,0.6,1.4,0.2,1.7L651.4,364.2z"/>
		
			<radialGradient id="SVGID_33_" cx="977.1636" cy="117.8372" r="6.1204" gradientTransform="matrix(0.829 0.5592 -0.4039 0.5987 -120.3059 -267.0771)" gradientUnits="userSpaceOnUse">
			<stop  offset="0.4014" style="stop-color:#D89349"/>
			<stop  offset="1" style="stop-color:#B97640"/>
		</radialGradient>
		<path fill="url(#SVGID_33_)" d="M640.5,355c-0.3,0.5-1.1,0.5-1.8,0.1l0,0c-0.7-0.4-0.9-1.2-0.6-1.6l5.7-8.5
			c0.3-0.5,1.1-0.5,1.8-0.1l0,0c0.7,0.4,0.9,1.2,0.6,1.6L640.5,355z"/>
		
			<radialGradient id="SVGID_34_" cx="937.598" cy="351.0154" r="6.1204" gradientTransform="matrix(0.9336 0.3584 -0.2588 0.6743 -156.1061 -229.5592)" gradientUnits="userSpaceOnUse">
			<stop  offset="0.4014" style="stop-color:#D89349"/>
			<stop  offset="1" style="stop-color:#B97640"/>
		</radialGradient>
		<path fill="url(#SVGID_34_)" d="M627.9,348.4c-0.2,0.5-1,0.7-1.7,0.4l0,0c-0.7-0.3-1.2-0.9-1-1.5l3.7-9.6c0.2-0.5,1-0.7,1.7-0.4
			l0,0c0.7,0.3,1.2,0.9,1,1.5L627.9,348.4z"/>
		
			<radialGradient id="SVGID_35_" cx="861.1633" cy="565.8936" r="6.1204" gradientTransform="matrix(0.9903 0.1392 -0.1005 0.7152 -182.549 -184.9497)" gradientUnits="userSpaceOnUse">
			<stop  offset="0.4014" style="stop-color:#D89349"/>
			<stop  offset="1" style="stop-color:#B97640"/>
		</radialGradient>
		<path fill="url(#SVGID_35_)" d="M614,344.9c-0.1,0.6-0.8,0.9-1.6,0.8l0,0c-0.8-0.1-1.3-0.7-1.3-1.2l1.4-10.2
			c0.1-0.6,0.8-0.9,1.6-0.8l0,0c0.8,0.1,1.3,0.7,1.3,1.2L614,344.9z"/>
		
			<radialGradient id="SVGID_36_" cx="752.9059" cy="750.3995" r="6.1204" gradientTransform="matrix(0.9962 -8.715574e-02 6.294581e-02 0.7195 -198.2792 -135.5351)" gradientUnits="userSpaceOnUse">
			<stop  offset="0.4014" style="stop-color:#D89349"/>
			<stop  offset="1" style="stop-color:#B97640"/>
		</radialGradient>
		<path fill="url(#SVGID_36_)" d="M600.9,343.7c0,0.6-0.5,1.1-1.3,1.1l0,0c-0.8,0.1-1.5-0.3-1.5-0.9l-0.9-10.2
			c0-0.6,0.5-1.1,1.3-1.1l0,0c0.8-0.1,1.5,0.3,1.5,0.9L600.9,343.7z"/>
		<g opacity="0.35">
			
				<radialGradient id="SVGID_37_" cx="618.1299" cy="414.8123" r="47.3091" gradientTransform="matrix(0.9987 5.083385e-02 -5.083385e-02 0.9987 13.4906 -18.2137)" gradientUnits="userSpaceOnUse">
				<stop  offset="0.2117" style="stop-color:#C8704F"/>
				<stop  offset="1" style="stop-color:#B4263C"/>
			</radialGradient>
			<path fill="url(#SVGID_37_)" d="M555.1,443.4c10.6,13.5,26.7,22.6,45.2,23.5c33.8,1.7,62.5-24.3,64.3-58
				c0.3-6.4-0.3-12.6-1.9-18.5C662.6,390.3,655.6,469.5,555.1,443.4"/>
		</g>
		<path opacity="0.17" fill="#FFFFFF" d="M640.8,479c1.1,1.7,1.7,4.1,3.7,4.2c3.6,0.2,8.1-4.4,8.3-8.6c0-0.8,0-1.6-0.2-2.3
			C652.6,476.4,648.4,481.2,640.8,479"/>
		<path opacity="0.17" fill="#FFFFFF" d="M613,482.8c0.9,2.1,2.7,3.9,5.1,4.8c4.4,1.7,9.2-0.2,10.7-4.2c0.3-0.8,0.4-1.5,0.5-2.3
			C629.3,481.1,625.3,490.3,613,482.8"/>
		<path opacity="0.17" fill="#FFFFFF" d="M658.8,464.9c0.7,1.3,1.8,2.2,3.2,2.3c2.5,0.3,4.7-2.1,5.1-5.2c0.1-0.6,0.1-1.2,0-1.7
			C667,460.3,666,467.6,658.8,464.9"/>
		<path opacity="0.17" fill="#FFFFFF" d="M556.5,463.5c-0.7,1.2-1.8,1.9-2.9,1.8c-2.1-0.1-3.6-2.7-3.4-5.9c0-0.6,0.1-1.2,0.3-1.7
			C550.4,457.8,550.2,465.2,556.5,463.5"/>
		<path opacity="0.17" fill="#FFFFFF" d="M665.8,443.8c1.2,1.4,2.5,2.1,3.6,1.8c2.1-0.6,4.6-3.9,4.1-8.4c-0.1-0.8-0.1-2.3-0.4-3
			C673,434.3,672.6,442.8,665.8,443.8"/>
	</g>
	<path fill="none" stroke="#99CCCC" stroke-width="9" stroke-miterlimit="10" d="M233.4,127.5c29.9-5.7,60.3,4.5,89.9,11.3
		c29.7,6.9,63.5,9.7,88.2-8.1c22.5-16.2,31.5-45.3,49.9-66.1c24.1-27.2,65.5-37.6,99.4-24.6s57.9,48.6,56.7,84.9
		c-0.6,18.9-7.6,37.5-19.6,52.1c-22.9,28-60.8,38.9-96.9,41.8c-36,2.9-72.6-0.8-108.3,5c-42.1,6.8-81.9,27-112.2,57
		c9.7,14.8,30.4,17.8,47.9,15.4c17.6-2.3,35-8.5,52.6-6.3c17.6,2.2,35.6,17.3,32.3,34.7c-2.4,12.4-14.5,20.7-26.7,24.1
		c-52.3,14.8-103.9-34-158-28.6c-15.8,1.6-30.8,7.8-44.8,15.2c-22.6,11.9-45.7,31.2-45.5,56.8c0.1,18.3,12.8,34.7,28.5,44
		c15.8,9.3,34.3,12.5,52.4,14.8c59.5,7.5,120.1,6,179.2-4.5c18.9-3.3,40.8-10.3,46.7-28.6c2.2-6.7,1.9-14.4,6-20.1
		c5-6.8,14.9-8.3,22.9-5.7c8,2.6,14.5,8.3,20.8,13.9c-4.2-12.6-11.2-24.3-20.2-34.1c7.1,10.2,14.1,20.3,21.2,30.5
		c1.6,2.4,3.3,4.8,3.6,7.7c0.3,3.1-1.2,6-2.7,8.8c-5.1,9.7-10.2,19.5-15.3,29.2"/>
	<g>
		<circle fill="none" stroke="#F16667" stroke-width="10" stroke-miterlimit="10" cx="103.5" cy="31" r="26"/>
		<line fill="none" stroke="#F16667" stroke-width="10" stroke-miterlimit="10" x1="103.5" y1="57" x2="103.5" y2="113"/>
		<line fill="none" stroke="#F16667" stroke-width="10" stroke-miterlimit="10" x1="103.5" y1="113" x2="76.5" y2="140"/>
		<line fill="none" stroke="#F16667" stroke-width="10" stroke-miterlimit="10" x1="103.5" y1="113" x2="130" y2="139.5"/>
		<line fill="none" stroke="#F16667" stroke-width="10" stroke-miterlimit="10" x1="77.5" y1="85" x2="129.5" y2="85"/>
	</g>
	<g>
		<circle fill="none" stroke="#F16667" stroke-width="10" stroke-miterlimit="10" cx="31" cy="85" r="26"/>
		<line fill="none" stroke="#F16667" stroke-width="10" stroke-miterlimit="10" x1="31" y1="111" x2="31" y2="167"/>
		<line fill="none" stroke="#F16667" stroke-width="10" stroke-miterlimit="10" x1="31" y1="167" x2="4" y2="194"/>
		<line fill="none" stroke="#F16667" stroke-width="10" stroke-miterlimit="10" x1="31" y1="167" x2="57.5" y2="193.5"/>
		<line fill="none" stroke="#F16667" stroke-width="10" stroke-miterlimit="10" x1="5" y1="139" x2="57" y2="139"/>
	</g>
	<g>
		<circle fill="none" stroke="#F16667" stroke-width="10" stroke-miterlimit="10" cx="184" cy="71.5" r="26"/>
		<line fill="none" stroke="#F16667" stroke-width="10" stroke-miterlimit="10" x1="184" y1="97.5" x2="184" y2="153.5"/>
		<line fill="none" stroke="#F16667" stroke-width="10" stroke-miterlimit="10" x1="184" y1="153.5" x2="157" y2="180.5"/>
		<line fill="none" stroke="#F16667" stroke-width="10" stroke-miterlimit="10" x1="184" y1="153.5" x2="210.5" y2="180"/>
		<line fill="none" stroke="#F16667" stroke-width="10" stroke-miterlimit="10" x1="158" y1="125.5" x2="210" y2="125.5"/>
	</g>
</g>
</svg>
