<?xml version="1.0" encoding="utf-8"?>
<!-- Generator: Adobe Illustrator 17.1.0, SVG Export Plug-In . SVG Version: 6.00 Build 0)  -->
<!DOCTYPE svg PUBLIC "-//W3C//DTD SVG 1.1//EN" "http://www.w3.org/Graphics/SVG/1.1/DTD/svg11.dtd">
<svg version="1.1" xmlns="http://www.w3.org/2000/svg" xmlns:xlink="http://www.w3.org/1999/xlink" x="0px" y="0px"
	 viewBox="0 0 792 576" enable-background="new 0 0 792 576" xml:space="preserve">
<g id="Layer_4">
	<radialGradient id="SVGID_1_" cx="396" cy="288" r="346.2369" gradientUnits="userSpaceOnUse">
		<stop  offset="0.2117" style="stop-color:#C8704F"/>
		<stop  offset="1" style="stop-color:#B4263C"/>
	</radialGradient>
	<rect fill="url(#SVGID_1_)" width="792" height="576"/>
</g>
<g id="Layer_1">
	<radialGradient id="SVGID_2_" cx="396" cy="258.3636" r="107.7922" gradientUnits="userSpaceOnUse">
		<stop  offset="0.224" style="stop-color:#D9B077"/>
		<stop  offset="0.8794" style="stop-color:#D89349"/>
		<stop  offset="1" style="stop-color:#834830"/>
	</radialGradient>
	<circle fill="url(#SVGID_2_)" cx="396" cy="258.364" r="107.792"/>
	<g>
		<radialGradient id="SVGID_3_" cx="396.405" cy="259.2574" r="87.013" gradientUnits="userSpaceOnUse">
			<stop  offset="0" style="stop-color:#E99F3C"/>
			<stop  offset="0.224" style="stop-color:#D9B077"/>
			<stop  offset="0.4111" style="stop-color:#D8A668"/>
			<stop  offset="0.6634" style="stop-color:#CC8B48"/>
			<stop  offset="0.8451" style="stop-color:#CA8643"/>
			<stop  offset="1" style="stop-color:#A16830"/>
		</radialGradient>
		<circle fill="url(#SVGID_3_)" cx="396.405" cy="259.257" r="87.013"/>
	</g>
	<linearGradient id="SVGID_4_" gradientUnits="userSpaceOnUse" x1="388.7726" y1="231.4301" x2="403.2274" y2="231.4301">
		<stop  offset="0.1093" style="stop-color:#502412"/>
		<stop  offset="0.5067" style="stop-color:#A46726"/>
		<stop  offset="0.8627" style="stop-color:#341F17"/>
	</linearGradient>
	<path fill="url(#SVGID_4_)" stroke="#FFFFFF" stroke-width="0.1277" stroke-miterlimit="10" d="M401.69,231.718
		c-1.194,1.224-2.863,10.837-4.443,10.965c-1.892,0.153-5.235-9.283-6.699-10.713c-2.688-2.624-2.155-7.055,0.469-9.743
		s6.931-2.74,9.619-0.116C403.324,224.735,404.314,229.03,401.69,231.718z"/>
	<linearGradient id="SVGID_5_" gradientUnits="userSpaceOnUse" x1="389.1776" y1="286.7548" x2="403.6324" y2="286.7548">
		<stop  offset="0.1093" style="stop-color:#502412"/>
		<stop  offset="0.5067" style="stop-color:#A46726"/>
		<stop  offset="0.8627" style="stop-color:#341F17"/>
	</linearGradient>
	<path fill="url(#SVGID_5_)" stroke="#FFFFFF" stroke-width="0.1277" stroke-miterlimit="10" d="M390.715,286.467
		c1.194-1.224,2.863-10.837,4.443-10.965c1.892-0.153,5.235,9.283,6.699,10.713c2.688,2.624,2.155,7.055-0.469,9.743
		c-2.624,2.688-6.931,2.74-9.619,0.116C389.081,293.45,388.091,289.155,390.715,286.467z"/>
	<linearGradient id="SVGID_6_" gradientUnits="userSpaceOnUse" x1="414.7632" y1="258.3636" x2="437.2716" y2="258.3636">
		<stop  offset="0.1093" style="stop-color:#502412"/>
		<stop  offset="0.5067" style="stop-color:#A46726"/>
		<stop  offset="0.8627" style="stop-color:#341F17"/>
	</linearGradient>
	<path fill="url(#SVGID_6_)" stroke="#FFFFFF" stroke-width="0.1277" stroke-miterlimit="10" d="M425.73,264.054
		c-1.224-1.194-10.837-2.863-10.964-4.443c-0.153-1.892,9.283-5.235,10.713-6.699c2.624-2.688,7.055-2.155,9.743,0.469
		c2.688,2.624,2.74,6.931,0.116,9.619C432.713,265.688,428.418,266.678,425.73,264.054z"/>
	<linearGradient id="SVGID_7_" gradientUnits="userSpaceOnUse" x1="355.3484" y1="261.3075" x2="377.8568" y2="261.3075">
		<stop  offset="0.1093" style="stop-color:#502412"/>
		<stop  offset="0.5067" style="stop-color:#A46726"/>
		<stop  offset="0.8627" style="stop-color:#341F17"/>
	</linearGradient>
	<path fill="url(#SVGID_7_)" stroke="#FFFFFF" stroke-width="0.1277" stroke-miterlimit="10" d="M366.89,255.617
		c1.224,1.194,10.837,2.863,10.965,4.443c0.153,1.892-9.283,5.235-10.713,6.699c-2.624,2.688-7.055,2.155-9.743-0.469
		c-2.688-2.624-2.74-6.931-0.116-9.619C359.907,253.983,364.202,252.993,366.89,255.617z"/>
</g>
<g id="Layer_2">
	
		<radialGradient id="SVGID_8_" cx="116.2099" cy="-43.4381" r="8.7467" gradientTransform="matrix(-1 0 0 -0.9153 512.6149 219.5149)" gradientUnits="userSpaceOnUse">
		<stop  offset="0.4014" style="stop-color:#D89349"/>
		<stop  offset="1" style="stop-color:#B97640"/>
	</radialGradient>
	<path opacity="0.74" fill="url(#SVGID_8_)" d="M394.371,249.967c0-1.028,0.91-1.861,2.034-1.861l0,0
		c1.123,0,2.034,0.833,2.034,1.861v18.613c0,1.028-0.91,1.861-2.034,1.861l0,0c-1.123,0-2.034-0.833-2.034-1.861V249.967z"/>
	
		<radialGradient id="SVGID_9_" cx="89.4891" cy="282.4645" r="8.7467" gradientTransform="matrix(-4.489700e-11 -1 0.9153 -4.109400e-11 137.8649 348.763)" gradientUnits="userSpaceOnUse">
		<stop  offset="0.4014" style="stop-color:#D89349"/>
		<stop  offset="1" style="stop-color:#B97640"/>
	</radialGradient>
	<path opacity="0.74" fill="url(#SVGID_9_)" d="M405.712,257.24c1.028,0,1.861,0.91,1.861,2.034l0,0
		c0,1.123-0.833,2.034-1.861,2.034h-18.613c-1.028,0-1.861-0.91-1.861-2.034l0,0c0-1.123,0.833-2.034,1.861-2.034H405.712z"/>
	
		<radialGradient id="SVGID_10_" cx="446.2834" cy="-138.8257" r="8.7467" gradientTransform="matrix(0.225 0.9744 -0.7037 0.1625 292.3794 -177.1997)" gradientUnits="userSpaceOnUse">
		<stop  offset="0.4014" style="stop-color:#D89349"/>
		<stop  offset="1" style="stop-color:#B97640"/>
	</radialGradient>
	<path fill="url(#SVGID_10_)" d="M483.767,238.725c-0.79,0.182-1.636-0.557-1.888-1.651l0,0c-0.253-1.094,0.183-2.129,0.974-2.312
		l14.31-3.304c0.79-0.182,1.636,0.557,1.888,1.651l0,0c0.253,1.094-0.183,2.129-0.974,2.312L483.767,238.725z"/>
	
		<radialGradient id="SVGID_11_" cx="402.0377" cy="-310.7378" r="8.7467" gradientTransform="matrix(0.0195 0.9998 -0.7221 0.0141 261.2545 -143.4942)" gradientUnits="userSpaceOnUse">
		<stop  offset="0.4014" style="stop-color:#D89349"/>
		<stop  offset="1" style="stop-color:#B97640"/>
	</radialGradient>
	<path fill="url(#SVGID_11_)" d="M486.189,256.257c-0.811,0.016-1.486-0.882-1.508-2.004l0,0c-0.022-1.123,0.618-2.046,1.429-2.062
		l14.684-0.287c0.811-0.016,1.486,0.882,1.508,2.004l0,0c0.022,1.123-0.618,2.046-1.429,2.062L486.189,256.257z"/>
	
		<radialGradient id="SVGID_12_" cx="463.3686" cy="-75.6598" r="8.7467" gradientTransform="matrix(0.4384 0.8988 -0.6491 0.3166 230.3661 -178.0081)" gradientUnits="userSpaceOnUse">
		<stop  offset="0.4014" style="stop-color:#D89349"/>
		<stop  offset="1" style="stop-color:#B97640"/>
	</radialGradient>
	<path fill="url(#SVGID_12_)" d="M476.898,219.558c-0.729,0.356-1.719-0.174-2.212-1.184l0,0c-0.492-1.009-0.3-2.116,0.429-2.472
		l13.201-6.438c0.729-0.356,1.719,0.174,2.211,1.184l0,0c0.492,1.009,0.3,2.116-0.429,2.472L476.898,219.558z"/>
	
		<radialGradient id="SVGID_13_" cx="469.7538" cy="-8.7912" r="8.7467" gradientTransform="matrix(0.6293 0.7771 -0.5613 0.4545 169.7603 -164.8458)" gradientUnits="userSpaceOnUse">
		<stop  offset="0.4014" style="stop-color:#D89349"/>
		<stop  offset="1" style="stop-color:#B97640"/>
	</radialGradient>
	<path fill="url(#SVGID_13_)" d="M465.893,202.428c-0.63,0.51-1.714,0.217-2.421-0.656l0,0c-0.707-0.873-0.769-1.994-0.138-2.505
		l11.414-9.243c0.63-0.51,1.714-0.217,2.421,0.656l0,0c0.707,0.873,0.769,1.994,0.138,2.505L465.893,202.428z"/>
	
		<radialGradient id="SVGID_14_" cx="465.1115" cy="58.3523" r="8.7467" gradientTransform="matrix(0.788 0.6157 -0.4446 0.5691 113.6688 -138.3875)" gradientUnits="userSpaceOnUse">
		<stop  offset="0.4014" style="stop-color:#D89349"/>
		<stop  offset="1" style="stop-color:#B97640"/>
	</radialGradient>
	<path fill="url(#SVGID_14_)" d="M451.317,188.212c-0.499,0.639-1.622,0.597-2.507-0.095l0,0c-0.885-0.691-1.198-1.77-0.698-2.409
		l9.042-11.573c0.499-0.639,1.622-0.597,2.507,0.095l0,0c0.885,0.691,1.198,1.77,0.698,2.409L451.317,188.212z"/>
	
		<radialGradient id="SVGID_15_" cx="449.6797" cy="122.329" r="8.7467" gradientTransform="matrix(0.9063 0.4226 -0.3052 0.6546 64.9667 -99.9896)" gradientUnits="userSpaceOnUse">
		<stop  offset="0.4014" style="stop-color:#D89349"/>
		<stop  offset="1" style="stop-color:#B97640"/>
	</radialGradient>
	<path fill="url(#SVGID_15_)" d="M433.917,177.639c-0.343,0.735-1.446,0.946-2.464,0.472l0,0c-1.018-0.475-1.565-1.455-1.222-2.191
		l6.207-13.311c0.343-0.735,1.446-0.946,2.464-0.472l0,0c1.018,0.475,1.565,1.455,1.222,2.191L433.917,177.639z"/>
	
		<radialGradient id="SVGID_16_" cx="424.2496" cy="179.8595" r="8.7467" gradientTransform="matrix(0.9781 0.2079 -0.1502 0.7064 26.1504 -51.6201)" gradientUnits="userSpaceOnUse">
		<stop  offset="0.4014" style="stop-color:#D89349"/>
		<stop  offset="1" style="stop-color:#B97640"/>
	</radialGradient>
	<path fill="url(#SVGID_16_)" d="M414.584,171.252c-0.169,0.793-1.196,1.247-2.294,1.014l0,0c-1.099-0.234-1.852-1.066-1.684-1.859
		l3.054-14.366c0.169-0.793,1.196-1.247,2.294-1.014l0,0c1.099,0.234,1.852,1.066,1.684,1.859L414.584,171.252z"/>
	
		<radialGradient id="SVGID_17_" cx="390.1245" cy="227.9947" r="8.7467" gradientTransform="matrix(0.9998 -0.0175 0.0126 0.7221 -0.7902 4.2414)" gradientUnits="userSpaceOnUse">
		<stop  offset="0.4014" style="stop-color:#D89349"/>
		<stop  offset="1" style="stop-color:#B97640"/>
	</radialGradient>
	<path fill="url(#SVGID_17_)" d="M394.31,169.377c0.014,0.811-0.885,1.484-2.008,1.504l0,0c-1.123,0.02-2.045-0.622-2.059-1.433
		l-0.256-14.685c-0.014-0.811,0.885-1.484,2.008-1.504l0,0c1.123-0.02,2.045,0.622,2.059,1.433L394.31,169.377z"/>
	
		<radialGradient id="SVGID_18_" cx="349.0538" cy="264.2672" r="8.7467" gradientTransform="matrix(0.9703 -0.2419 0.1747 0.7008 -14.4742 64.7314)" gradientUnits="userSpaceOnUse">
		<stop  offset="0.4014" style="stop-color:#D89349"/>
		<stop  offset="1" style="stop-color:#B97640"/>
	</radialGradient>
	<path fill="url(#SVGID_18_)" d="M374.134,172.111c0.196,0.787-0.528,1.645-1.618,1.917l0,0c-1.09,0.272-2.132-0.146-2.328-0.933
		l-3.553-14.251c-0.196-0.787,0.528-1.645,1.618-1.917l0,0c1.09-0.272,2.132,0.146,2.328,0.933L374.134,172.111z"/>
	
		<radialGradient id="SVGID_19_" cx="303.1427" cy="286.8177" r="8.7467" gradientTransform="matrix(0.891 -0.454 0.3279 0.6435 -14.2002 126.7494)" gradientUnits="userSpaceOnUse">
		<stop  offset="0.4014" style="stop-color:#D89349"/>
		<stop  offset="1" style="stop-color:#B97640"/>
	</radialGradient>
	<path fill="url(#SVGID_19_)" d="M355.09,179.314c0.368,0.723-0.144,1.722-1.145,2.232l0,0c-1.001,0.51-2.11,0.337-2.479-0.385
		l-6.668-13.086c-0.368-0.723,0.144-1.722,1.145-2.232l0,0c1.001-0.51,2.11-0.337,2.479,0.385L355.09,179.314z"/>
	
		<radialGradient id="SVGID_20_" cx="254.7447" cy="294.4903" r="8.7467" gradientTransform="matrix(0.766 -0.6428 0.4642 0.5533 0.0178 187.1162)" gradientUnits="userSpaceOnUse">
		<stop  offset="0.4014" style="stop-color:#D89349"/>
		<stop  offset="1" style="stop-color:#B97640"/>
	</radialGradient>
	<path fill="url(#SVGID_20_)" d="M338.154,190.616c0.521,0.621,0.247,1.71-0.614,2.432l0,0c-0.86,0.722-1.98,0.803-2.502,0.182
		l-9.441-11.251c-0.521-0.621-0.247-1.71,0.614-2.432l0,0c0.86-0.722,1.98-0.803,2.502-0.182L338.154,190.616z"/>
	
		<radialGradient id="SVGID_21_" cx="206.3405" cy="286.8917" r="8.7467" gradientTransform="matrix(0.6018 -0.7986 0.5768 0.4346 27.451 242.7374)" gradientUnits="userSpaceOnUse">
		<stop  offset="0.4014" style="stop-color:#D89349"/>
		<stop  offset="1" style="stop-color:#B97640"/>
	</radialGradient>
	<path fill="url(#SVGID_21_)" d="M324.195,205.438c0.648,0.488,0.625,1.611-0.051,2.508l0,0c-0.676,0.897-1.749,1.228-2.397,0.74
		l-11.729-8.839c-0.648-0.488-0.625-1.611,0.051-2.508l0,0c0.676-0.897,1.749-1.228,2.397-0.74L324.195,205.438z"/>
	
		<radialGradient id="SVGID_22_" cx="160.4115" cy="264.4114" r="8.7467" gradientTransform="matrix(0.4067 -0.9135 0.6598 0.2938 66.6931 290.762)" gradientUnits="userSpaceOnUse">
		<stop  offset="0.4014" style="stop-color:#D89349"/>
		<stop  offset="1" style="stop-color:#B97640"/>
	</radialGradient>
	<path fill="url(#SVGID_22_)" d="M313.928,223.02c0.741,0.33,0.971,1.429,0.515,2.455l0,0c-0.457,1.026-1.428,1.59-2.169,1.26
		l-13.417-5.974c-0.741-0.33-0.971-1.429-0.515-2.455l0,0c0.457-1.026,1.428-1.59,2.169-1.26L313.928,223.02z"/>
	
		<radialGradient id="SVGID_23_" cx="119.3119" cy="228.2017" r="8.7467" gradientTransform="matrix(0.1908 -0.9816 0.709 0.1378 115.7326 328.7281)" gradientUnits="userSpaceOnUse">
		<stop  offset="0.4014" style="stop-color:#D89349"/>
		<stop  offset="1" style="stop-color:#B97640"/>
	</radialGradient>
	<path fill="url(#SVGID_23_)" d="M307.879,242.461c0.796,0.155,1.268,1.174,1.054,2.276l0,0c-0.214,1.102-1.033,1.871-1.83,1.716
		l-14.417-2.802c-0.796-0.155-1.268-1.174-1.054-2.276l0,0c0.214-1.102,1.033-1.871,1.83-1.716L307.879,242.461z"/>
	
		<radialGradient id="SVGID_24_" cx="85.1485" cy="180.1187" r="8.7467" gradientTransform="matrix(-0.0349 -0.9994 0.7218 -0.0252 172.0557 354.6898)" gradientUnits="userSpaceOnUse">
		<stop  offset="0.4014" style="stop-color:#D89349"/>
		<stop  offset="1" style="stop-color:#B97640"/>
	</radialGradient>
	<path fill="url(#SVGID_24_)" d="M306.359,262.765c0.811-0.028,1.5,0.859,1.539,1.981l0,0c0.039,1.122-0.586,2.055-1.397,2.084
		l-14.678,0.513c-0.811,0.028-1.5-0.859-1.539-1.981l0,0c-0.039-1.122,0.586-2.055,1.397-2.084L306.359,262.765z"/>
	
		<radialGradient id="SVGID_25_" cx="59.6724" cy="122.6272" r="8.7467" gradientTransform="matrix(-0.2588 -0.9659 0.6976 -0.1869 232.7754 367.316)" gradientUnits="userSpaceOnUse">
		<stop  offset="0.4014" style="stop-color:#D89349"/>
		<stop  offset="1" style="stop-color:#B97640"/>
	</radialGradient>
	<path fill="url(#SVGID_25_)" d="M309.444,282.89c0.784-0.21,1.654,0.499,1.945,1.584l0,0c0.291,1.085-0.109,2.134-0.892,2.344
		l-14.186,3.801c-0.784,0.21-1.654-0.499-1.945-1.584l0,0c-0.291-1.085,0.109-2.134,0.892-2.344L309.444,282.89z"/>
	
		<radialGradient id="SVGID_26_" cx="44.1897" cy="58.6741" r="8.7467" gradientTransform="matrix(-0.4695 -0.8829 0.6377 -0.3391 294.7791 365.9597)" gradientUnits="userSpaceOnUse">
		<stop  offset="0.4014" style="stop-color:#D89349"/>
		<stop  offset="1" style="stop-color:#B97640"/>
	</radialGradient>
	<path fill="url(#SVGID_26_)" d="M316.978,301.805c0.716-0.381,1.724,0.114,2.251,1.106l0,0c0.527,0.992,0.374,2.104-0.342,2.485
		l-12.968,6.895c-0.716,0.381-1.724-0.114-2.251-1.106l0,0c-0.527-0.992-0.374-2.104,0.342-2.485L316.978,301.805z"/>
	
		<radialGradient id="SVGID_27_" cx="39.4938" cy="-8.4623" r="8.7467" gradientTransform="matrix(-0.6561 -0.7547 0.5451 -0.4738 354.8886 350.6903)" gradientUnits="userSpaceOnUse">
		<stop  offset="0.4014" style="stop-color:#D89349"/>
		<stop  offset="1" style="stop-color:#B97640"/>
	</radialGradient>
	<path fill="url(#SVGID_27_)" d="M328.574,318.541c0.612-0.532,1.706-0.276,2.443,0.571l0,0c0.737,0.848,0.838,1.966,0.226,2.498
		l-11.084,9.635c-0.612,0.532-1.706,0.276-2.443-0.571l0,0c-0.737-0.848-0.838-1.966-0.226-2.498L328.574,318.541z"/>
	
		<radialGradient id="SVGID_28_" cx="45.8256" cy="-75.3405" r="8.7467" gradientTransform="matrix(-0.809 -0.5878 0.4245 -0.5843 410.0226 322.2906)" gradientUnits="userSpaceOnUse">
		<stop  offset="0.4014" style="stop-color:#D89349"/>
		<stop  offset="1" style="stop-color:#B97640"/>
	</radialGradient>
	<path fill="url(#SVGID_28_)" d="M343.637,332.239c0.477-0.656,1.6-0.653,2.508,0.007l0,0c0.909,0.66,1.259,1.727,0.782,2.383
		l-8.633,11.882c-0.477,0.656-1.6,0.653-2.508-0.007l0,0c-0.909-0.66-1.259-1.727-0.782-2.384L343.637,332.239z"/>
	
		<radialGradient id="SVGID_29_" cx="62.8605" cy="-138.5326" r="8.7467" gradientTransform="matrix(-0.9205 -0.3907 0.2822 -0.6648 457.355 282.2163)" gradientUnits="userSpaceOnUse">
		<stop  offset="0.4014" style="stop-color:#D89349"/>
		<stop  offset="1" style="stop-color:#B97640"/>
	</radialGradient>
	<path fill="url(#SVGID_29_)" d="M361.396,342.198c0.317-0.747,1.412-0.996,2.446-0.557l0,0c1.034,0.439,1.615,1.4,1.298,2.147
		l-5.739,13.519c-0.317,0.747-1.412,0.996-2.446,0.557l0,0c-1.034-0.439-1.615-1.4-1.298-2.147L361.396,342.198z"/>
	
		<radialGradient id="SVGID_30_" cx="89.7253" cy="-194.7991" r="8.7467" gradientTransform="matrix(-0.9848 -0.1736 0.1254 -0.7112 494.4595 232.5217)" gradientUnits="userSpaceOnUse">
		<stop  offset="0.4014" style="stop-color:#D89349"/>
		<stop  offset="1" style="stop-color:#B97640"/>
	</radialGradient>
	<path fill="url(#SVGID_30_)" d="M380.94,347.907c0.141-0.799,1.152-1.288,2.258-1.093l0,0c1.106,0.195,1.888,1.001,1.748,1.799
		l-2.55,14.464c-0.141,0.799-1.152,1.288-2.258,1.093l0,0c-1.106-0.195-1.888-1.001-1.748-1.799L380.94,347.907z"/>
	
		<radialGradient id="SVGID_31_" cx="125.0428" cy="-241.256" r="8.7467" gradientTransform="matrix(-0.9986 0.0523 -0.0378 -0.7212 519.4341 175.754)" gradientUnits="userSpaceOnUse">
		<stop  offset="0.4014" style="stop-color:#D89349"/>
		<stop  offset="1" style="stop-color:#B97640"/>
	</radialGradient>
	<path fill="url(#SVGID_31_)" d="M401.267,349.073c-0.042-0.81,0.832-1.514,1.954-1.573l0,0c1.122-0.059,2.065,0.55,2.108,1.36
		l0.769,14.667c0.042,0.81-0.832,1.514-1.954,1.573l0,0c-1.122,0.059-2.065-0.55-2.108-1.36L401.267,349.073z"/>
	
		<radialGradient id="SVGID_32_" cx="167.0028" cy="-275.5218" r="8.7467" gradientTransform="matrix(-0.9613 0.2756 -0.1991 -0.6942 530.9988 114.8232)" gradientUnits="userSpaceOnUse">
		<stop  offset="0.4014" style="stop-color:#D89349"/>
		<stop  offset="1" style="stop-color:#B97640"/>
	</radialGradient>
	<path fill="url(#SVGID_32_)" d="M421.335,345.636c-0.224-0.78,0.47-1.663,1.55-1.972l0,0c1.08-0.31,2.136,0.072,2.36,0.851
		l4.048,14.118c0.224,0.78-0.47,1.663-1.55,1.972l0,0c-1.08,0.31-2.136-0.072-2.36-0.851L421.335,345.636z"/>
	
		<radialGradient id="SVGID_33_" cx="213.4543" cy="-295.8401" r="8.7467" gradientTransform="matrix(-0.8746 0.4848 -0.3501 -0.6317 528.5605 52.8526)" gradientUnits="userSpaceOnUse">
		<stop  offset="0.4014" style="stop-color:#D89349"/>
		<stop  offset="1" style="stop-color:#B97640"/>
	</radialGradient>
	<path fill="url(#SVGID_33_)" d="M440.116,337.774c-0.393-0.709,0.084-1.726,1.067-2.27l0,0c0.982-0.544,2.097-0.411,2.491,0.299
		l7.12,12.845c0.393,0.709-0.084,1.726-1.067,2.27l0,0c-0.982,0.544-2.097,0.411-2.491-0.299L440.116,337.774z"/>
	
		<radialGradient id="SVGID_34_" cx="262.0162" cy="-301.1693" r="8.7467" gradientTransform="matrix(-0.7431 0.6691 -0.4833 -0.5367 512.2444 -6.9812)" gradientUnits="userSpaceOnUse">
		<stop  offset="0.4014" style="stop-color:#D89349"/>
		<stop  offset="1" style="stop-color:#B97640"/>
	</radialGradient>
	<path fill="url(#SVGID_34_)" d="M456.647,325.888c-0.543-0.603-0.306-1.701,0.529-2.452l0,0c0.835-0.752,1.951-0.872,2.494-0.269
		l9.827,10.914c0.543,0.603,0.306,1.701-0.529,2.452l0,0c-0.835,0.751-1.951,0.872-2.494,0.269L456.647,325.888z"/>
	
		<radialGradient id="SVGID_35_" cx="310.1993" cy="-291.2363" r="8.7467" gradientTransform="matrix(-0.5736 0.8192 -0.5916 -0.4142 482.8868 -61.6112)" gradientUnits="userSpaceOnUse">
		<stop  offset="0.4014" style="stop-color:#D89349"/>
		<stop  offset="1" style="stop-color:#B97640"/>
	</radialGradient>
	<path fill="url(#SVGID_35_)" d="M470.08,310.588c-0.664-0.465-0.681-1.588-0.037-2.508l0,0c0.644-0.92,1.705-1.289,2.369-0.823
		l12.031,8.424c0.664,0.465,0.681,1.588,0.037,2.508l0,0c-0.644,0.92-1.705,1.289-2.37,0.823L470.08,310.588z"/>
	
		<radialGradient id="SVGID_36_" cx="355.5338" cy="-266.5503" r="8.7467" gradientTransform="matrix(-0.3746 0.9272 -0.6696 -0.2705 441.9926 -108.237)" gradientUnits="userSpaceOnUse">
		<stop  offset="0.4014" style="stop-color:#D89349"/>
		<stop  offset="1" style="stop-color:#B97640"/>
	</radialGradient>
	<path fill="url(#SVGID_36_)" d="M479.728,292.658c-0.752-0.304-1.021-1.394-0.6-2.436l0,0c0.421-1.041,1.371-1.639,2.124-1.335
		l13.617,5.502c0.752,0.304,1.021,1.394,0.6,2.436l0,0c-0.421,1.041-1.371,1.639-2.124,1.335L479.728,292.658z"/>
	
		<radialGradient id="SVGID_37_" cx="397.3082" cy="-229.8884" r="8.7467" gradientTransform="matrix(-0.1564 0.9877 -0.7133 -0.113 391.658 -144.4685)" gradientUnits="userSpaceOnUse">
		<stop  offset="0.4014" style="stop-color:#D89349"/>
		<stop  offset="1" style="stop-color:#B97640"/>
	</radialGradient>
	<path fill="url(#SVGID_37_)" d="M485.921,274.781c-0.801-0.127-1.308-1.129-1.132-2.238l0,0c0.176-1.109,0.968-1.906,1.769-1.779
		l14.506,2.298c0.801,0.127,1.308,1.129,1.132,2.238l0,0c-0.176,1.109-0.968,1.906-1.769,1.779L485.921,274.781z"/>
	<rect x="309.202" y="72.849" fill="none" width="174.405" height="70.496"/>
	
		<text transform="matrix(1 0 0 1 309.2025 133.8448)" fill="#C49A6C" stroke="#C49A6C" stroke-miterlimit="10" font-family="'BrainFlower'" font-size="90">POP PIE</text>
</g>
<g id="Layer_3">
	
		<radialGradient id="SVGID_38_" cx="397.1615" cy="295.0542" r="93.1135" gradientTransform="matrix(0.9986 0.1358 -0.1348 0.9909 41.9125 -51.9488)" gradientUnits="userSpaceOnUse">
		<stop  offset="0.2117" style="stop-color:#C8704F"/>
		<stop  offset="1" style="stop-color:#B4263C"/>
	</radialGradient>
	<path fill="url(#SVGID_38_)" d="M476.122,245.893c0,0,1.963-26.953,22.96-22.536c0,0,5.629,1.223,7.536,21.619
		c1.957,20.928-5.222,20.562-5.741,53.734c-0.497,31.804-18.555,15.222-13.364,28.459c6.877,17.539-8.064,27.733-12.804,23.428
		c-3.173-2.881-0.926-5.993-3.041-7.187c-5.557-3.137-3.157,3.371-2.387,13.336c0.825,10.672-8.383,20.954-18.683,13.026
		c-6.931-5.335-6.635-3.474-15.166,3.23c-6.509,5.115,0,0-5.758,5.063c-10.155,8.929-19.092,0.11-26.476-4.455
		c-9.418-5.822-18.595-8.296-33.791-9.96c-8.882-0.972-20.675-5.085-31.881-15.088c-1.955-1.745-5.844-2.901-6.796-2.808
		c-5.153,0.498-10.026,2.358-12.228-4.993c-2.848-9.505-11.941-18.393-17.183-28.013c-17.758-32.584,7.176-7.917,17.922-3.974
		s17.615,2.456,22.069-2.456c4.454-4.912,8.476-11.16,17.17-11.962c8.694-0.802,10.511,12.338,32.076,12.525
		c21.565,0.187,31.166-20.525,34.891-25.494s16.107-15.906,30.084-19.132C469.507,259.03,473.779,253.74,476.122,245.893z"/>
	<g opacity="0.35">
		
			<radialGradient id="SVGID_39_" cx="404.5433" cy="288.789" r="67.2372" gradientTransform="matrix(0.9987 0.0508 -0.0508 0.9987 15.7243 -20.0389)" gradientUnits="userSpaceOnUse">
			<stop  offset="0.2117" style="stop-color:#C8704F"/>
			<stop  offset="1" style="stop-color:#B4263C"/>
		</radialGradient>
		<path fill="url(#SVGID_39_)" d="M327.397,311.499c14.997,19.227,37.947,32.077,64.211,33.414
			c47.994,2.443,88.881-34.483,91.324-82.477c0.463-9.101-0.489-17.947-2.665-26.324
			C480.268,236.112,470.201,348.637,327.397,311.499"/>
	</g>
	<path opacity="0.17" fill="#FFFFFF" d="M449.24,362.098c1.602,2.417,2.357,5.794,5.193,5.939
		c5.182,0.264,11.508-6.217,11.817-12.287c0.059-1.151-0.036-2.268-0.263-3.325C465.994,358.511,460.059,365.305,449.24,362.098"/>
	<path opacity="0.17" fill="#FFFFFF" d="M409.718,367.586c1.259,2.969,3.816,5.512,7.25,6.81c6.275,2.371,13.104-0.316,15.252-6.001
		c0.407-1.078,0.617-2.187,0.647-3.292C432.868,365.104,427.255,378.246,409.718,367.586"/>
	<path opacity="0.17" fill="#FFFFFF" d="M474.806,342.096c0.982,1.833,2.584,3.095,4.498,3.296c3.498,0.367,6.712-2.951,7.18-7.409
		c0.089-0.846,0.072-1.671-0.037-2.457C486.447,335.525,485.033,345.967,474.806,342.096"/>
	<path opacity="0.17" fill="#FFFFFF" d="M329.44,340.156c-1.057,1.669-2.546,2.683-4.144,2.601
		c-2.921-0.149-5.105-3.899-4.877-8.376c0.043-0.849,0.17-1.663,0.367-2.424C320.786,331.957,320.514,342.488,329.44,340.156"/>
	<path opacity="0.17" fill="#FFFFFF" d="M484.69,312.199c1.642,1.989,3.493,2.999,5.082,2.532c3.041-0.893,6.522-5.605,5.78-11.942
		c-0.136-1.166-0.16-3.231-0.62-4.204C494.932,298.585,494.46,310.712,484.69,312.199"/>
</g>
</svg>
